<?xml version="1.0" encoding="utf-8"?>
<!-- Generator: Adobe Illustrator 28.3.0, SVG Export Plug-In . SVG Version: 6.00 Build 0)  -->
<svg version="1.1" id="Layer_1" xmlns="http://www.w3.org/2000/svg" xmlns:xlink="http://www.w3.org/1999/xlink" x="0px" y="0px"
	 viewBox="0 0 500 500" style="enable-background:new 0 0 500 500;" xml:space="preserve">
<style type="text/css">
	.st0{fill:#010101;}
	.st1{fill:#FFFFFF;stroke:#010101;stroke-miterlimit:10;}
	.st2{fill:#FFFFFF;stroke:#FFFFFF;stroke-miterlimit:10;}
	.st3{fill:#010101;stroke:#010101;stroke-miterlimit:10;}
</style>
<path class="st0" d="M-0.4,215.4c0.67-2.42,3.7-3.05,4.28-3.15c4.79-1.26,36.37-20.27,51.32-35.71c21.59-22.37,42-68.58,43.93-76.56
	c0.08-0.53,0.59-2.73,1.85-3.26c2.1-0.95,5.8,3.15,6.97,7.77c0.67,2.52,0.42,4.83,0.25,6.83c-0.42,4.31-1.68,7.35-2.1,8.4
	c-8.23,19.53-14.78,29.09-14.78,29.09c-14.19,18.17-19.91,28.88-23.43,33.08C47.81,205.21,5.4,232.83,1.62,226.22
	c-0.67-1.26-1.51-6.09-2.02-8.93C-0.48,216.87-0.57,216.13-0.4,215.4z"/>
<path class="st0" d="M229.66,200.38c-1.18-2.52-4.2-2.52-4.87-2.52c-7.9-0.32-36.79-15.02-51.15-26.88
	c-22.17-18.48-45.36-60.28-47.88-67.84c-0.17-0.53-0.76-2.52-2.02-2.94c-2.1-0.63-5.12,3.89-5.8,8.61c-0.42,2.63,0,4.83,0.42,6.72
	c0.76,4.1,2.27,6.93,2.77,7.88c9.41,17.85,16.46,26.04,16.46,26.04c14.53,15.54,20.83,24.68,24.86,28.57
	c0,0,31.92,30.98,60.56,32.98c3.86,0.32,5.46-1.79,5.8-2.21C230.24,206.58,230.75,202.69,229.66,200.38z"/>
<path class="st0" d="M272.32,200.38c1.18-2.52,4.2-2.52,4.87-2.52c7.9-0.32,36.79-15.02,51.15-26.88
	c22.17-18.48,45.36-60.28,47.88-67.84c0.17-0.53,0.76-2.52,2.02-2.94c2.1-0.63,5.12,3.89,5.8,8.61c0.42,2.63,0,4.83-0.42,6.72
	c-0.76,4.1-2.27,6.93-2.77,7.88c-9.41,17.85-16.46,26.04-16.46,26.04c-14.45,17.12-21.67,25.62-24.86,28.57
	c-26.12,24.57-60.89,40.64-66.35,30.77C272.58,207.52,271.06,203.11,272.32,200.38z"/>
<path class="st0" d="M499.19,209.2c-0.92-2.63-3.95-3.15-4.62-3.36c-7.81-1.58-35.19-20.9-48.3-35.08
	c-20.33-21.95-39.56-67.21-41.32-75.09c-0.08-0.53-0.59-2.63-1.76-3.26c-2.02-0.95-5.46,3.05-6.55,7.56
	c-0.59,2.52-0.42,4.73-0.25,6.72c0.42,4.2,1.6,7.25,2.02,8.3c7.73,19.22,13.94,28.57,13.94,28.57
	c12.77,19.32,19.23,28.99,22.09,32.45c23.69,28.67,56.69,50.3,62.99,41.27C498.26,216.34,500.28,212.14,499.19,209.2z"/>
<polygon class="st0" points="99.55,60.6 97.7,386.58 134.83,386.58 134.83,60.6 "/>
<polygon class="st0" points="367.57,63.02 365.64,389.1 402.85,389.1 402.85,63.02 "/>
<path class="st0" d="M112.32,44.95c4.79,1.58,9.58,3.26,14.36,4.83"/>
<path class="st0" d="M99.97,58.82"/>
<path class="st0" d="M99.55,61.44c-1.43-5.04,3.95-11.76,4.87-12.81c6.05-7.56,15.79-8.19,22.76-2.31c3.02,2.52,8.9,9.24,7.64,14.28
	C132.39,70.79,102.49,71.73,99.55,61.44z"/>
<path class="st0" d="M367.57,64.91c-0.17-0.84-0.08-1.68,0.08-3.15c0,0,0.67-6.3,4.7-11.66c5.8-7.67,17.97-8.61,25.03-1.05
	c1.09,1.16,4.79,5.15,5.46,11.45c0.08,0.95,0.42,4.1-0.5,6.62C398.31,78.24,369.25,74.46,367.57,64.91z"/>
<path class="st0" d="M311.13,184.63c-2.6-0.32-4.7,1.05-5.12,1.47c-6.8,5.46-37.29,13.02-55.27,12.92
	c-25.45-0.1-61.06-15.65-66.44-20.27c-0.34-0.32-1.68-1.58-2.86-0.95c-2.02,0.95-2.69,7.04-1.34,11.45
	c0.76,2.42,2.02,3.99,3.02,5.36c1.85,2.21,3.61,3.47,4.7,4.2c6.05,3.78,15.29,7.14,16.63,7.67c9.16,3.36,16.97,5.25,22.85,6.41
	c21.08,4.1,37.04,2.31,41.66,1.68c10.75-1.37,18.06-3.78,20.33-4.52c1.26-0.42,29.9-10.19,29.31-18.8
	C318.43,187.99,314.4,185.05,311.13,184.63z"/>
<path class="st0" d="M1.62,215.61c-0.08,9.56-0.08,19.11-0.17,28.67c4.2,0,8.32-0.1,12.51-0.1c0-9.35,0-18.59,0-27.93"/>
<path class="st0" d="M437.96,179.06c-0.08,21.74-0.08,43.48-0.17,65.22c4.2-0.1,8.32-0.1,12.51-0.21c0-21.21,0-42.32,0-63.54"/>
<path class="st0" d="M486.84,212.14c-0.08,10.71-0.08,21.42-0.17,32.14c4.2,0,8.32-0.1,12.51-0.1c0-10.4,0-20.9,0-31.3"/>
<path class="st0" d="M322.89,179.17c-0.08,21.74-0.08,43.48-0.17,65.22c4.2-0.1,8.32-0.1,12.51-0.21c0-21.21,0-42.32,0-63.54"/>
<path class="st0" d="M176.57,182.11c-0.08,20.79-0.08,41.59-0.17,62.28c4.28-0.1,8.57-0.1,12.85-0.21c0-20.27,0-40.43,0-60.7"/>
<path class="st0" d="M225.04,203.32c-0.08,13.65-0.08,27.41-0.17,41.06c4.28,0,8.57-0.1,12.85-0.1c0-13.34,0-26.67,0-40.01"/>
<path class="st0" d="M273.92,203.32c-0.08,13.65-0.08,27.41-0.17,41.06c4.28,0,8.57-0.1,12.85-0.1c0-13.34,0-26.67,0-40.01"/>
<path class="st1" d="M28.58,391.2c5.63-9.56,14.61-21.42,26.88-23.63c14.36-2.63,22.01,9.87,36.37,17.12
	c27.97,14.07,42.58-11.34,83.57-14.7c35.95-3.05,33.01,15.75,74.42,16.91c49.89,1.47,54.34-25.73,95.08-17.12
	c31.5,6.62,39.48,25.2,62.32,17.12c18.23-6.51,28.47-23.73,44.94-18.8c9.32,2.73,15.87,11.24,19.99,17.96"/>
<path class="st2" d="M30.26,424.91c11.17-24.57,20.33-29.93,26.88-29.93c8.32,0,17.13,8.61,39.06,20.48c0.84,0.42,2.1,1.05,3.7,1.68
	c0,0,0.92,0.32,1.85,0.63c4.37,1.26,14.03-8.82,14.03-8.82c3.44-3.57,9.16-5.25,20.58-8.51c11-3.15,21.08-3.05,40.74-2.52
	c11.59,0.32,17.47,0.42,21.67,1.79c12.85,3.99,14.36,10.19,27.47,14.7c7.9,2.63,14.03,2.63,26.37,2.63c7.39,0,15.79,0,25.7-2.31
	c22.76-5.25,25.62-15.96,45.69-18.27c10.83-1.26,19.65,0.74,22.68,1.47c9.32,2.31,14.03,5.88,37.8,15.54
	c3.86,1.58,8.23,3.26,14.03,3.15c7.39-0.1,12.77-3.05,16.38-4.94c21.08-11.24,31.67-16.8,39.06-16.07
	c14.19,1.58,21.59,14.6,22.34,17.01c0.84,2.73,0.84,5.25,0.84,5.25c0,1.16-0.08,2.1-0.25,2.73"/>
<path class="st1" d="M28.58,391.2c-0.42,7.35-0.17,13.02,0.17,16.91c0.34,4.2,0.84,6.83,0.67,11.66c-0.17,3.99-0.67,6.09-0.17,6.41
	c1.09,0.74,3.36-6.51,9.16-12.81c7.73-8.4,17.05-9.14,19.99-9.35c11.84-0.63,16.29,8.09,26.46,12.6
	c23.69,10.61,35.7-20.37,75.09-19.64c12.93,0.21,24.61,3.89,25.37,4.1c16.97,5.36,21.42,12.29,37.63,16.07
	c10.84,2.52,22.26,2.94,22.26,2.94c2.18,0.11,4.03,0.11,5.46,0.11c11.67-0.11,23.01-0.11,36.62-5.99c3.86-1.68,8.15-4.1,16.71-8.82
	c8.65-4.83,10.84-6.51,15.87-8.09c3.95-1.26,9.74-2.94,16.38-1.37c6.47,1.58,6.13,4.41,14.78,8.82c11.34,5.88,16.29,4.41,24.61,8.3
	c5.96,2.84,7.73,4.31,12.85,5.78c1.93,0.53,8.06,2.1,15.54,1.47c1.93-0.21,3.61-0.42,5.21-0.84c8.9-2.42,15.29-6.51,21.5-9.98
	c9.74-5.25,19.15-10.4,29.15-7.14c2.35,0.74,6.8,2.31,9.91,7.46c3.53,5.88,3.19,13.02,3.86,12.92c0.17,0,0.84-0.53,0.67-18.59
	c-0.08-5.57-0.17-10.08-0.25-13.13c0,0,0.08-0.95-0.08-2.31c-0.08-0.84-0.25-1.89-0.92-2.42c-0.34-0.21-0.59-0.32-0.76-0.32
	c-1.93-0.11-2.94-0.21-4.62,0c-0.5,0.1-0.34,0-4.03-0.11c-4.12-0.1-7.73-0.1-10.92-0.1c-2.02,0.1-5.12,0.21-8.82,0
	c-16.97-1.05-22.93-7.56-33.68-10.08c-20.91-5.04-34.6,11.03-53.42,11.03c-2.27,0-11.09,0-16.04,0.11c-4.96,0.1-6.22,0.21-9.32,0
	c-32-2-40.82-12.92-62.07-14.7c-24.53-2-26.79,11.45-56.36,17.33c-33.43,6.72-48.55-6.83-81.98-12.5
	C107.11,372.72,72.59,372.51,28.58,391.2z"/>
<path class="st1" d="M29.42,419.66c-2.6,33.82-1.34,42.32,0.5,42.85c1.76,0.53,2.69-5.78,9.16-12.81
	c8.57-9.35,19.07-9.35,21.17-9.35c11.17,0,19.15,7.88,23.18,11.13c20.49,16.49,43.84-2.84,78.45-8.51
	c29.65-4.83,38.55,5.15,61.73,10.5c12.51,2.84,22.59,3.05,27.72,2.94c11.67-0.11,23.01-0.11,36.62-5.99
	c11.09-4.73,13.1-8.82,23.85-11.03c6.97-1.37,13.19-1.16,19.99-0.84c4.45,0.21,11.25,0.53,19.99,2.42
	c4.12,0.95,13.35,2.94,24.61,8.3c5.96,2.84,7.73,4.31,12.85,5.78c1.93,0.53,8.06,2.1,15.54,1.47c8.65-0.74,11.51-3.78,26.71-10.82
	c14.28-6.51,21.5-9.77,26.37-7.67c9.91,4.2,14.19,19.11,16.71,17.33c0.42-0.32,0.42-5.25,0.42-15.02c0-4.41-0.67-8.82-0.25-13.13
	c0,0,0.08-0.95-0.08-2.31c-0.08-0.84-0.25-1.89-0.92-2.42c-0.34-0.21-0.59-0.32-0.76-0.32c-1.93-0.11-2.94-0.21-4.62,0
	c-0.5,0.1-0.34,0-4.03-0.11c-4.12-0.1-7.73-0.1-10.92-0.1c-2.02,0.32-5.12,0.53-8.82,0c-11.51-1.68-17.72-9.45-25.62-15.33
	c-13.27-9.87-26.21-10.61-34.52-11.13c-9.07-0.53-16.97,1.05-32.34,6.41c-27.21,9.45-33.43,13.02-38.89,12.92
	c-1.01,0-1.85-0.32-3.53-0.63c-15.29-2.94-25.95-8.51-30.57-10.82c-6.47-3.15-22.34-10.92-38.72-10.5
	c-9.83,0.21-19.65,5.15-39.14,14.91c0,0-32.59,16.28-45.02,14.6c-5.04-0.63-8.82-2.31-8.82-2.31c-9.24-4.2-12.35-12.6-29.23-14.07
	c-12.51-1.16-24.53,2.31-35.02,5.25c-12.43,3.57-16.04,6.3-26.63,8.19C45.04,421.55,35.55,420.71,29.42,419.66z"/>
<path class="st3" d="M498.43,237.98c0,16.59,0,33.29,0,49.88c-165.38-0.1-330.76-0.21-496.14-0.32c0-15.75,0.08-31.61,0.08-47.36
	C167.67,239.45,333.05,238.71,498.43,237.98z"/>
<path class="st1" d="M29.33,461.25c-0.42,7.35-0.17,13.02,0.17,16.91c0.34,4.2,0.84,6.83,0.67,11.66c-0.17,3.99-0.67,6.09-0.17,6.41
	c1.09,0.74,3.36-6.51,9.16-12.81c8.57-9.35,19.07-9.35,21.17-9.35c11.17,0,19.15,7.88,23.18,11.13
	c20.49,16.49,43.84-2.84,78.45-8.51c29.65-4.83,38.55,5.15,61.73,10.5c12.51,2.84,22.59,3.05,27.72,2.94
	c11.67-0.1,23.01-0.1,36.62-5.99c11.09-4.73,13.1-8.82,23.85-11.03c6.97-1.37,13.19-1.16,19.99-0.84
	c4.45,0.21,11.25,0.53,19.99,2.42c4.12,0.95,13.35,2.94,24.61,8.3c5.96,2.84,7.73,4.31,12.85,5.78c1.93,0.53,8.06,2.1,15.54,1.47
	c8.65-0.74,11.51-3.78,26.71-10.82c14.28-6.51,21.5-9.77,26.37-7.67c9.91,4.2,14.19,19.11,16.71,17.33
	c0.42-0.32,0.42-5.25,0.42-15.02c0-4.41-0.67-8.82-0.25-13.13c0,0,0.08-0.95-0.08-2.31c-0.08-0.84-0.25-1.89-0.92-2.42
	c-0.34-0.21-0.59-0.32-0.76-0.32c-1.93-0.1-2.94-0.21-4.62,0c-0.5,0.11-0.34,0-4.03-0.1c-4.12-0.1-7.73-0.1-10.92-0.1
	c0,0-4.03,0-8.82,0c-17.55,0.1-36.28,0.95-36.28,0.95c-17.22,0.74-26.21,0.1-50.82-0.11c-38.64-0.32-43.84,1.16-86.68,1.58
	c-30.49,0.21-50.73-0.32-65.6-0.63C168.51,456.94,112.49,457.26,29.33,461.25z"/>
<path class="st1" d="M30.26,463.35c2.69-5.25,11.51-21.11,26.54-25.52c3.19-0.95,9.41-2.73,16.38,0.32
	c6.13,2.63,7.48,6.62,12.68,11.13c12.93,11.03,28.98,6.93,33.18,5.78c10.25-2.63,9.74-7.04,23.01-11.97
	c9.32-3.47,16.55-3.89,25.37-4.41c15.96-0.84,29.23,1.26,38.3,3.26c24.44,5.36,26.21,13.23,45.69,14.49
	c3.36,0.21,13.94,0.74,27.21-2.73c15.71-4.1,18.06-9.14,30.99-13.76c5.8-2.1,28.31-9.98,51.32,0.53
	c12.6,5.78,19.07,14.18,34.35,15.86c2.86,0.32,8.65,0.95,16.04-1.05c7.22-1.89,12.93-5.36,17.72-8.4c7.56-4.62,6.89-5.57,11.09-7.46
	c3.28-1.37,11.67-5.04,20.41,0c8.74,5.04,12.51,15.44,13.52,18.48"/>
<path class="st0" d="M56.21,176.23c-0.08,21.21-0.08,42.53-0.17,63.75c4.28-0.1,8.57-0.1,12.85-0.21c0-20.69,0-41.38,0-62.07"/>
<path class="st1" d="M443.92,500"/>
</svg>
