<?xml version="1.0" encoding="utf-8"?>
<!-- Generator: Adobe Illustrator 28.3.0, SVG Export Plug-In . SVG Version: 6.00 Build 0)  -->
<svg version="1.1" id="Layer_1" xmlns="http://www.w3.org/2000/svg" xmlns:xlink="http://www.w3.org/1999/xlink" x="0px" y="0px"
	 viewBox="0 0 500 400" style="enable-background:new 0 0 500 400;" xml:space="preserve">
<style type="text/css">
	.st0{fill:#010101;}
</style>
<g transform="translate(0.000000,190.000000) scale(0.100000,-0.100000)">
	<path class="st0" d="M1812.78,973.63c-356.54-133.59-417.66-166.99-672.34-375.73C862,372.46,753.34,247.22,539.42-74.24
		C254.19-508.42,70.82-1084.55,23.28-1694.07C6.3-1919.51,13.1-1990.48,50.45-2019.71c27.17-20.87,1110.37-37.57,2448.25-37.57
		c2706.32,0,2472.02-33.4,2444.86,346.51C4875.64-637.84,4349.32,314.01,3561.53,781.59
		c-370.12,221.27-634.98,292.24-1103.58,288.06C2148.95,1069.66,2013.12,1048.78,1812.78,973.63z M2926.55,798.29
		c821.74-208.74,1483.89-947.68,1721.59-1916.24c44.14-183.69,88.29-413.31,95.08-509.33l16.98-179.52H4593.8h-166.39v267.19
		c0,304.76-10.19,317.29-292.02,317.29h-183.36v267.19c0,304.76-10.19,317.29-292.02,317.29h-183.36v267.19
		c0,304.76-10.19,317.29-292.02,317.29h-183.36v267.19c0,204.57-13.58,271.36-54.33,292.24c-101.87,50.1-913.43,29.22-957.57-25.05
		c-23.77-29.22-40.75-158.64-40.75-292.24V-53.37h-196.95c-108.66,0-213.92-20.87-237.69-50.1s-40.75-158.64-40.75-292.24v-242.14
		h-173.18c-264.86,0-302.21-41.75-302.21-333.98v-250.49H800.88c-108.66,0-213.92-20.87-237.69-50.1
		c-23.77-29.22-40.75-158.64-40.75-292.24v-242.14h-152.8c-149.41,0-152.8,4.17-152.8,137.77c0,217.09,129.03,734.77,264.86,1052.05
		c67.91,158.64,217.32,409.13,329.38,559.42C1371.35,681.4,2148.95,994.51,2926.55,798.29z M2811.1,113.62V-32.49l-329.38-12.52
		l-329.38-12.52v171.17v171.17l329.38-12.52l329.38-12.52V113.62z M1948.61-466.68c0-146.12-10.19-162.82-95.08-179.52
		c-149.41-25.05-176.57,0-176.57,179.52c0,162.82,0,162.82,135.83,162.82S1948.61-303.86,1948.61-466.68z M3279.69-449.98
		c16.98-192.04-20.37-225.44-234.3-192.04c-27.17,0-44.14,66.8-44.14,171.17c0,166.99,0,166.99,132.43,166.99
		C3259.32-303.86,3266.11-312.21,3279.69-449.98z M1948.61-1055.32v-166.99h-373.52h-373.52v166.99v166.99h373.52h373.52V-1055.32z
		 M3751.69-938.43c0-29.22,6.79-96.02,10.19-150.29c6.79-54.27,0-100.2-10.19-108.55c-20.37-16.7-505.95-37.57-655.36-29.22
		c-88.29,4.17-95.08,16.7-95.08,171.17v166.99h373.52C3649.82-888.33,3748.29-900.86,3751.69-938.43z M1466.43-1648.15
		c-10.19-154.47-20.37-175.34-84.89-171.17c-44.14,0-207.13,4.17-366.73,8.35l-288.63,4.17v166.99v166.99h376.92h373.52
		L1466.43-1648.15z M1941.82-1648.15c-10.19-175.34-13.58-179.52-129.03-179.52c-115.45,4.17-118.85,8.35-129.03,179.52
		l-10.19,175.34h139.22H1952L1941.82-1648.15z M3272.9-1639.8c0-137.77-13.58-166.99-67.91-171.17
		c-37.35-4.17-95.08-8.35-125.64-12.52c-47.54-4.17-64.52,33.4-71.31,175.34l-10.19,175.34h135.83h139.22V-1639.8z M4216.89-1648.15
		c-6.79-100.2-20.37-175.34-33.96-166.99c-16.98,4.17-179.97,8.35-366.73,8.35h-339.56v166.99v166.99h376.92h373.52L4216.89-1648.15
		z"/>
</g>
</svg>
