<?xml version="1.0" standalone="no"?>
<!DOCTYPE svg PUBLIC "-//W3C//DTD SVG 20010904//EN"
 "http://www.w3.org/TR/2001/REC-SVG-20010904/DTD/svg10.dtd">
<svg version="1.0" xmlns="http://www.w3.org/2000/svg"
 width="225.000000pt" height="225.000000pt" viewBox="0 0 225.000000 225.000000"
 preserveAspectRatio="xMidYMid meet">

<g transform="translate(0.000000,225.000000) scale(0.100000,-0.100000)"
fill="#000000" stroke="none">
<path d="M1102 1858 c-13 -17 -32 -86 -32 -120 0 -15 12 -63 26 -108 25 -76
26 -85 14 -140 -13 -60 -9 -80 15 -80 20 0 42 45 50 103 6 38 2 65 -20 133
-26 80 -27 90 -15 144 7 32 9 63 6 69 -9 15 -31 14 -44 -1z"/>
<path d="M654 1784 c-28 -42 -30 -138 -5 -202 23 -58 27 -137 9 -177 -9 -21
-9 -29 3 -41 57 -57 93 115 48 228 -16 42 -20 65 -15 108 4 30 8 66 9 80 3 35
-27 38 -49 4z"/>
<path d="M1553 1802 c-37 -24 -44 -152 -13 -232 23 -58 25 -105 8 -162 -10
-33 -9 -41 3 -49 21 -13 27 -11 45 16 27 42 30 141 5 203 -23 58 -27 137 -10
176 9 20 9 29 -1 41 -14 17 -20 18 -37 7z"/>
<path d="M1000 1249 c-277 -16 -531 -104 -733 -254 -96 -72 -138 -126 -163
-214 -41 -139 44 -310 185 -374 63 -29 260 -38 280 -13 7 9 11 23 7 31 -4 12
-24 15 -94 15 -115 0 -182 20 -237 71 -59 54 -88 118 -87 194 0 104 32 156
151 243 70 53 219 138 225 130 2 -1 29 -51 60 -111 42 -77 66 -112 87 -122 35
-19 69 -11 100 21 21 23 22 28 15 158 l-7 134 53 10 c29 6 72 13 94 16 l41 6
34 -152 c39 -175 54 -202 114 -202 60 0 75 27 114 202 34 153 34 153 60 148
14 -3 49 -8 76 -11 93 -12 87 1 79 -151 -7 -130 -6 -135 15 -158 31 -32 65
-40 100 -21 21 10 45 45 87 122 31 60 58 109 59 111 2 2 31 -11 66 -28 58 -30
64 -31 75 -15 20 27 6 43 -70 80 -221 106 -487 151 -786 134z m179 -181 c-15
-68 -31 -133 -34 -145 -3 -13 -12 -23 -20 -23 -8 0 -17 10 -20 23 -3 12 -19
77 -34 145 l-28 122 82 0 82 0 -28 -122z m-447 -18 c1 -49 2 -102 2 -117 2
-58 -28 -35 -81 62 -29 53 -53 99 -53 104 0 8 84 38 113 40 15 1 17 -10 19
-89z m865 73 c29 -9 53 -20 53 -24 0 -5 -24 -51 -52 -104 -54 -97 -84 -120
-82 -62 0 15 1 68 2 117 1 61 6 90 14 90 6 0 35 -8 65 -17z"/>
<path d="M1952 988 c-20 -20 -14 -32 42 -81 63 -54 96 -115 99 -183 3 -81 -21
-142 -77 -200 -82 -84 -81 -84 -618 -84 -400 0 -459 -2 -464 -15 -4 -8 -1 -22
6 -30 11 -14 73 -15 494 -13 469 3 482 4 528 25 117 54 191 170 192 299 1 62
-3 80 -34 139 -25 49 -51 82 -88 112 -58 47 -62 49 -80 31z"/>
<path d="M694 425 c-13 -33 4 -45 59 -45 57 0 84 17 73 45 -8 21 -124 21 -132
0z"/>
</g>
</svg>
