<?xml version="1.0" encoding="utf-8"?>
<!-- Generator: Adobe Illustrator 28.3.0, SVG Export Plug-In . SVG Version: 6.00 Build 0)  -->
<svg version="1.1" id="Layer_1" xmlns="http://www.w3.org/2000/svg" xmlns:xlink="http://www.w3.org/1999/xlink" x="0px" y="0px"
	 viewBox="0 0 500 400" style="enable-background:new 0 0 500 400;" xml:space="preserve">
<style type="text/css">
	.st0{fill:#010101;}
</style>
<g transform="translate(0.000000,225.000000) scale(0.100000,-0.100000)">
	<path class="st0" d="M883.65,1562.86c-42-43.47-21-108.67,33-99.36c27,6.21,51,31.05,51,52.78
		C967.66,1565.96,913.65,1593.91,883.65,1562.86z"/>
	<path class="st0" d="M574.65,1348.61c-27-71.41,9-139.72,75-139.72s123,83.83,102,149.04
		C733.65,1410.71,595.65,1404.5,574.65,1348.61z M697.65,1302.04c0-21.73-18-46.57-36-52.78c-24-9.31-39,12.42-39,52.78
		s15,62.1,39,55.89C679.65,1348.61,697.65,1323.77,697.65,1302.04z"/>
	<path class="st0" d="M3202.71,885.97c0-24.84,24-52.78,57-65.2c69-21.73,168-208.03,144-276.34c-15-37.26-63-49.68-216.01-49.68
		c-111,0-195-12.42-195-31.05c0-18.63,195-31.05,525.01-31.05s525.01,12.42,525.01,31.05c0,18.63-84,31.05-195,31.05
		c-225.01,0-258.01,31.05-183,183.19c33,62.1,81,102.46,144,121.09c117,31.05,147,99.36,45,99.36
		c-120,0-258.01-139.72-279.01-282.55c-27-161.46-63-152.14-105,18.63C3424.72,814.56,3202.71,1025.69,3202.71,885.97z"/>
	<path class="st0" d="M1534.67,848.71c-135-68.31-270.01-223.56-231.01-263.92c21-21.73,45-6.21,81,49.68
		c30,46.57,114,111.78,186,142.83c72,34.15,132,74.52,132,90.04C1702.67,910.81,1642.67,904.6,1534.67,848.71z"/>
	<path class="st0" d="M2752.7,836.29c0-15.52,48-31.05,105-31.05c57,0,105,15.52,105,31.05c0,18.63-48,31.05-105,31.05
		C2800.7,867.34,2752.7,854.92,2752.7,836.29z"/>
	<path class="st0" d="M532.52,446.38c-72.99-70.69,41.94-178.97-27.43-372.24c-20.54-57.22-54.19-113.44-86.2-235.1
		c0,0-10.91-41.48-19.59-86.2c-52.27-269.4-31.35-564.24-31.35-564.24c21.02-296.24,81.41-422.96,15.51-467.77
		c-34.7-23.59-67.21-18.05-201.82-23.86c-72-3.11-129-15.52-129-34.15c0-21.73,834.02-31.05,2445.06-31.05
		s2445.06,9.31,2445.06,31.05c0,18.63-24,34.15-51,34.15c-30,3.1-66,6.21-84,12.42c-15,3.11-60,9.32-96,9.32
		c-66,6.21-69,15.52-69,338.44c0,260.82,9,341.55,48,385.02c90,105.57-27,229.77-144,155.25c-48-31.05-72-24.84-162,58.99
		c-234.01,211.14-612.02,49.68-612.02-263.92c0-30.52-2.39-49.26-13.07-60.66c-26.62-28.42-81.12-18.46-88.93-16.97
		c-32.68,6.26-55.61,22.69-70.13,34.39c-69.1,55.67-101.1,127.56-101.88,129.31c-50.03,112.22-584.22,837-1261.71,901.22
		c-125.09,11.86-444.47,42.14-579.92-133.22c-82.96-107.41-94.51-288.86-242.94-356.57c-31.4-14.32-78.46-27.91-108.98-74.88
		c-36.91-56.8-27.17-127.82-22.51-161.8c2.85-20.78,9.55-77.81,45.28-127.73c44.35-61.96,92.01-69.48,242.94-137.14
		c0,0,240.82-107.96,278.79-210.19c0.4-1.07,1.61-4.34,0.34-5.49c-5.41-4.89-48.94,35.2-57.35,42.75
		c-209.79,188.52-413.79,172.93-413.79,172.93c-50.88-3.89-100.42-7.67-156.73-35.27c-48.1-23.57-91.93-59.99-125.39-43.1
		c-10.62,5.36-15.18,13.56-39.18,27.43c-21.94,12.68-37.08,16.79-43.1,19.59c-41.82,19.49-21.55,152.42-15.67,270.37
		c2.82,56.71,11.16,252.11-54.86,301.71c-5.13,3.85-24.06,16.86-47.02,39.18C871.25-6.7,854.74,16.09,849.9,23.2
		c-31,45.55-28.11,101.35-27.43,148.9c2.03,140.49,3.04,210.74-23.51,246.86C747.31,489.23,595.82,507.7,532.52,446.38z
		 M712.65-436.75v-838.35h-105h-105v524.74c0,428.49,9,530.95,45,562c33,27.94,45,105.57,45,294.97c0,257.71,9,294.97,81,294.97
		C703.65,401.59,712.65,240.13,712.65-436.75z M2693.61,60.79c60.53-41.35,168.02-119.63,433.63-389.22
		c91.12-92.49,235.64-242.8,370.94-457.14c11.99-19,110.83-177.54,73.14-214.2c-10.81-10.52-25.42-3.76-83.59-10.45
		c-24.23-2.79-64.25-7.39-101.88-20.9c-67.24-24.14-108.36-70.09-120.16-83.59c-52.74-60.32-32.44-87.74-70.53-120.16
		c-40.97-34.87-64.78-3.41-229.88-15.67c-78.51-5.83-141.64-18.04-216.82,15.67c-9.02,4.05-16.22,7.86-20.9,10.45
		c12.28,57.57,52.91,274.28-60.08,368.33c-31.47,26.19-90.43,55.84-109.58,38.53c-17.61-15.92-1.83-67.92,23.78-112.87
		c69-121.09,66-301.18,0-338.44c-144-77.62-339.01,71.41-339.01,251.5c0,93.15-15,108.67-171,186.3
		c-96,43.47-240.01,139.72-321.01,214.24c-103.46,95.18-127.23,116.36-195,133.51c-45.45,11.51-86.15,10.11-123.77,45.18
		c-4.89,4.56-48.8,46.77-47.02,107.76c1.87,64.11,52.98,106,86.2,133.22c55.28,45.31,93.11,47.77,137.14,70.53
		c132.74,68.62,85.69,199.66,207.67,301.71c112.12,93.8,272.79,84.27,372.24,78.37c96.09-5.7,168.27-29.28,221.39-47.02
		C2520.47,169.37,2608.07,119.23,2693.61,60.79z M874.65-144.88c9-27.94,18-170.77,18-319.81c0-267.03,0-270.13,84-304.29l81-34.15
		l-81-3.1c-42-3.1-99-12.42-123-21.73c-36-12.42-45,43.47-48,357.07C799.65-126.25,823.65-11.37,874.65-144.88z M4279.74-359.13
		c120-62.1,153-189.4,150-555.79c0-173.88-9-291.87-18-267.03c-6,24.84-21,68.31-30,93.15c-12,24.84-15,58.99-12,77.62
		c6,15.52-3,21.73-15,6.21c-12-12.42-48,3.1-78,31.05c-63,55.89-225.01,68.31-366.01,27.94l-84-27.94l12,242.19
		c9,223.56,18,245.29,108,329.13C4054.73-303.24,4153.73-290.82,4279.74-359.13z M4663.75-458.49c12-27.94,3-58.99-15-65.2
		c-24-6.21-36-124.2-36-378.81c0-291.87-9-369.49-45-381.91c-24-12.42-48-9.31-57,3.1c-27,49.68,9,788.67,45,832.14
		C4600.75-390.18,4639.75-393.28,4663.75-458.49z M1678.67-796.93c123-80.73,219.01-211.14,192-257.71c-12-15.52-54,3.1-96,43.47
		c-147,142.83-333.01,127.3-477.01-34.15c-42-46.57-75-117.99-75-158.35c0-65.2-12-74.52-81-65.2
		c-210.01,24.84-60,478.17,180,549.58C1444.67-685.15,1540.67-703.78,1678.67-796.93z M3724.72-765.88c33-12.42,48-58.99,48-155.25
		c0-74.52-9-136.62-21-136.62c-24,0-129,239.08-129,288.76C3622.72-741.04,3661.72-741.04,3724.72-765.88z M2047.68-914.92
		c54-40.36,54-43.47-12-65.2c-69-21.73-135,31.05-105,83.83C1951.68-862.13,1984.68-865.24,2047.68-914.92z M1000.66-952.18
		c-9-27.94-18-62.1-18-77.62c0-34.15-33-34.15-87,0c-60,40.36-18,127.3,60,127.3C1000.66-902.5,1012.66-914.92,1000.66-952.18z
		 M1714.67-1063.96c39-40.36,81-102.46,93-139.72c18-71.41,15-71.41-252.01-71.41c-312.01,0-339.01,27.94-186,189.4
		C1477.67-973.91,1609.67-967.7,1714.67-1063.96z M4264.74-1076.38c42-46.57,78-108.67,78-139.72c0-52.78-27-58.99-285.01-58.99
		c-261.01,0-285.01,6.21-285.01,58.99c0,34.15,42,96.25,93,139.72C3991.73-964.6,4156.73-967.7,4264.74-1076.38z M2182.69-1095.01
		c0-37.26,21-93.15,51-124.2c45-52.78,39-55.89-150-55.89c-177,0-201.01,6.21-201.01,58.99c0,37.26,45,80.73,129,124.2
		C2170.69-1011.17,2182.69-1011.17,2182.69-1095.01z M946.65-1160.21c69-55.89,39-114.88-54-114.88c-81,0-90,9.31-90,93.15
		c0,74.52,9,86.94,54,71.41C883.65-1119.85,925.65-1141.58,946.65-1160.21z M3652.72-1150.9c99-102.46,72-124.2-135-124.2
		c-213.01,0-255.01,46.57-129,136.62C3481.72-1070.17,3580.72-1076.38,3652.72-1150.9z"/>
	<path class="st0" d="M1981.68,100.41c-75-27.94-42-102.46,45-102.46c45,0,66,12.42,48,24.84s-39,37.26-45,55.89
		C2023.68,97.31,1999.68,106.62,1981.68,100.41z"/>
	<path class="st0" d="M1759.68-98.31c-72-74.52-72-96.25-3-183.19c72-93.15,207.01-65.2,234.01,46.57
		C2026.68-88.99,1861.68,7.26,1759.68-98.31z M1930.68-160.41c9-18.63,0-52.78-21-77.62c-54-52.78-132-6.21-108,62.1
		C1822.68-120.04,1900.68-110.73,1930.68-160.41z"/>
	<path class="st0" d="M1442.67-332.55c0-15.52,15-31.05,30-31.05c18,0,30,15.52,30,31.05c0,18.63-12,31.05-30,31.05
		C1457.67-301.5,1442.67-313.92,1442.67-332.55z"/>
	<path class="st0" d="M3943.73,255.66c-39-40.36-21-158.35,27-176.98c60-24.84,132,34.15,132,105.57S3991.73,305.34,3943.73,255.66z
		 M4051.73,168.72c3-15.52-18-34.15-45-40.36c-33-6.21-54,9.31-54,40.36C3952.73,221.5,4042.73,224.61,4051.73,168.72z"/>
	<path class="st0" d="M3331.71,66.26c-117-18.63-75-68.31,51-68.31c78,0,120,15.52,120,40.36
		C3502.72,78.68,3457.72,84.89,3331.71,66.26z"/>
	<path class="st0" d="M1378.67-1653.9c18-55.89,867.02-55.89,885.02,0c12,27.94-90,37.26-441.01,37.26
		S1369.67-1625.96,1378.67-1653.9z"/>
	<path class="st0" d="M2743.7-1635.27c-39-43.47,18-74.52,132-74.52c84,0,117,12.42,117,46.57s-33,46.57-114,46.57
		C2815.7-1616.64,2752.7-1625.96,2743.7-1635.27z"/>
	<path class="st0" d="M3598.72-1653.9c9-27.94,126-43.47,408.01-49.68c339.01-6.21,396.01,0,396.01,40.36s-63,46.57-408.01,46.57
		C3682.72-1616.64,3589.72-1625.96,3598.72-1653.9z"/>
</g>
</svg>
