<?xml version="1.0" standalone="no"?>
<!DOCTYPE svg PUBLIC "-//W3C//DTD SVG 20010904//EN"
 "http://www.w3.org/TR/2001/REC-SVG-20010904/DTD/svg10.dtd">
<svg version="1.0" xmlns="http://www.w3.org/2000/svg"
 width="225.000000pt" height="225.000000pt" viewBox="0 0 225.000000 225.000000"
 preserveAspectRatio="xMidYMid meet">

<g transform="translate(0.000000,225.000000) scale(0.100000,-0.100000)"
fill="#000000" stroke="none">
<path d="M1392 2239 c-18 -6 -51 -28 -74 -51 l-41 -41 -156 -2 c-177 -2 -283
-24 -422 -88 l-76 -34 -32 33 c-87 89 -234 64 -296 -49 -14 -26 -27 -37 -43
-37 -41 0 -89 -27 -122 -69 -18 -23 -39 -41 -46 -41 -19 0 -71 -66 -79 -99
-20 -93 58 -171 172 -171 l32 0 -29 -70 c-57 -133 -73 -218 -74 -402 -1 -92
-5 -170 -9 -174 -14 -14 -7 -43 13 -57 31 -22 40 -69 40 -209 l0 -128 -64 0
c-44 0 -67 -5 -76 -15 -9 -11 -11 -54 -8 -157 4 -131 6 -147 30 -194 39 -75
70 -107 140 -145 l63 -34 885 0 885 0 67 33 c75 37 110 72 147 152 23 49 26
70 29 193 3 98 0 142 -8 152 -10 12 -40 15 -136 15 -68 0 -124 2 -124 5 0 3
13 26 30 53 61 99 130 302 130 384 0 19 9 31 34 46 49 29 71 67 71 123 0 55
-23 93 -74 120 -31 17 -36 26 -56 106 -38 148 -128 323 -166 323 -36 0 -33
-30 15 -120 35 -66 86 -188 86 -204 0 -1 -18 0 -40 2 -30 3 -41 9 -46 26 -26
82 -125 135 -216 114 -49 -11 -105 -50 -120 -84 -8 -17 -19 -24 -39 -24 -58 0
-124 -43 -154 -100 -10 -20 -21 -25 -50 -25 -37 0 -38 2 -52 48 -17 58 -49 79
-85 55 -18 -12 -37 -73 -115 -364 -51 -192 -93 -357 -93 -366 0 -25 31 -38 89
-38 l51 0 0 -40 c0 -39 -1 -40 -33 -40 -31 0 -57 -14 -57 -31 0 -4 7 -15 16
-23 14 -15 75 -16 547 -16 l532 0 -1 -107 c-1 -85 -5 -118 -21 -153 -25 -57
-75 -107 -133 -134 -45 -21 -54 -21 -905 -21 -851 0 -860 0 -905 21 -58 27
-108 77 -133 134 -16 35 -20 68 -21 153 l-1 108 462 -1 c408 0 463 1 477 16
12 12 13 20 6 35 -9 17 -22 19 -105 19 l-95 0 0 164 0 164 29 5 c31 6 46 30
33 53 -13 23 -373 274 -393 274 -10 0 -21 -4 -24 -10 -10 -17 -25 -11 -25 9 0
10 9 21 20 24 26 7 36 33 20 52 -10 12 -38 15 -130 15 -65 0 -125 -3 -134 -6
-23 -9 -20 -51 4 -59 18 -6 20 -15 20 -100 0 -92 -1 -94 -29 -114 l-28 -20 -7
63 c-13 132 21 315 86 459 l31 67 141 0 c78 0 147 4 154 9 8 4 12 19 10 32
l-3 24 -230 2 c-247 3 -267 7 -284 53 -13 38 5 70 53 95 21 11 42 30 47 42 12
33 53 55 104 57 47 1 65 15 65 48 0 28 49 77 90 89 51 15 104 -10 143 -68 25
-39 32 -43 68 -43 56 0 95 -24 120 -73 27 -52 36 -58 74 -51 70 13 114 -75 62
-124 -19 -18 -37 -22 -116 -24 -78 -3 -96 -6 -105 -21 -9 -15 -7 -21 9 -33 32
-25 190 -15 237 14 50 31 76 97 60 150 -16 52 -61 92 -110 99 -33 4 -45 13
-69 47 -16 23 -45 49 -63 58 l-33 16 29 15 c105 54 325 93 454 81 l70 -7 0
-39 c0 -101 93 -188 200 -188 57 0 100 18 146 61 l30 29 45 -31 c24 -17 72
-58 105 -91 64 -62 96 -72 102 -32 4 25 -73 104 -165 171 -58 41 -63 48 -63
82 0 84 -40 149 -114 186 -52 26 -97 30 -154 14z m139 -77 c62 -35 82 -132 39
-192 -37 -52 -113 -75 -163 -49 -116 60 -111 212 8 254 43 15 74 11 116 -13z
m324 -712 c18 -11 38 -35 45 -53 21 -58 26 -62 76 -68 66 -8 78 -15 100 -55
12 -22 30 -38 52 -45 23 -7 38 -21 47 -42 16 -38 9 -62 -23 -87 -21 -17 -40
-20 -122 -20 l-97 0 -39 147 c-45 175 -68 207 -119 169 -13 -9 -32 -61 -60
-162 l-40 -149 -136 -3 -136 -3 -17 65 c-9 36 -16 70 -16 75 0 5 21 11 47 13
43 3 48 6 67 42 28 54 65 78 125 84 47 4 53 8 68 39 32 68 114 92 178 53z m34
-450 l78 -295 -160 -3 c-88 -1 -161 -1 -163 1 -2 1 32 135 76 297 44 162 80
300 81 305 1 17 6 1 88 -305z m-530 -1 l78 -294 -160 -3 c-88 -1 -161 -1 -163
1 -2 1 28 117 66 257 37 140 73 275 80 299 6 23 13 41 16 38 3 -2 40 -137 83
-298z m-989 187 c0 -38 -4 -47 -35 -70 l-35 -27 0 70 0 71 35 0 c35 0 35 0 35
-44z m250 -141 c71 -50 129 -93 130 -97 0 -5 -122 -8 -272 -8 -149 0 -268 3
-264 8 20 20 262 190 269 188 5 -1 67 -42 137 -91z m999 -172 c-55 -203 -56
-213 -34 -229 11 -8 43 -14 72 -14 l53 0 0 -40 0 -40 -170 0 -170 0 0 40 0 40
51 0 c57 0 89 13 89 36 0 13 -61 250 -86 337 -5 15 5 17 114 17 l120 0 -39
-147z m455 100 c-8 -55 -42 -174 -53 -186 -5 -4 -20 38 -35 95 -15 57 -30 111
-32 121 -5 15 3 17 61 17 l66 0 -7 -47z m-1324 -258 l0 -165 -85 0 -85 0 0
101 c0 98 -1 101 -29 130 -39 38 -87 39 -130 3 -31 -26 -31 -26 -31 -130 l0
-104 -85 0 -85 0 0 165 0 165 265 0 265 0 0 -165z m-242 23 c8 -8 12 -45 12
-100 l0 -88 -35 0 -35 0 0 88 c0 85 8 112 35 112 6 0 16 -5 23 -12z m802 -148
c0 -39 -1 -40 -35 -40 -34 0 -35 1 -35 40 0 39 1 40 35 40 34 0 35 -1 35 -40z
m530 0 c0 -39 -1 -40 -35 -40 -34 0 -35 1 -35 40 0 39 1 40 35 40 34 0 35 -1
35 -40z m90 10 c-12 -16 -23 -30 -26 -30 -2 0 -4 14 -4 30 0 26 4 30 26 30
l25 0 -21 -30z"/>
<path d="M280 355 c-7 -8 -10 -22 -6 -30 5 -13 62 -15 451 -15 389 0 446 2
451 15 4 8 1 22 -6 30 -19 22 -871 22 -890 0z"/>
<path d="M1660 355 c-7 -8 -10 -22 -6 -30 8 -22 314 -22 322 0 4 8 1 22 -6 30
-18 22 -292 22 -310 0z"/>
<path d="M584 215 c-4 -8 -4 -22 0 -30 4 -12 32 -15 164 -15 166 0 191 6 176
44 -5 14 -28 16 -170 16 -137 0 -166 -3 -170 -15z"/>
<path d="M1364 215 c-3 -8 -3 -22 0 -30 5 -13 26 -15 128 -13 l123 3 0 25 0
25 -123 3 c-102 2 -123 0 -128 -13z"/>
</g>
</svg>
