<?xml version="1.0" encoding="utf-8"?>
<!-- Generator: Adobe Illustrator 28.3.0, SVG Export Plug-In . SVG Version: 6.00 Build 0)  -->
<svg version="1.1" id="Layer_1" xmlns="http://www.w3.org/2000/svg" xmlns:xlink="http://www.w3.org/1999/xlink" x="0px" y="0px"
	 viewBox="0 0 500 500" style="enable-background:new 0 0 500 500;" xml:space="preserve">
<style type="text/css">
	.st0{fill:#010101;stroke:#010101;stroke-miterlimit:10;}
	.st1{fill:#2D2E2D;stroke:#231F20;stroke-width:0.25;stroke-miterlimit:10;}
	.st2{fill:#25373D;stroke:#231F20;stroke-width:0.25;stroke-miterlimit:10;}
	.st3{fill:#643C37;stroke:#010101;stroke-width:0.25;stroke-miterlimit:10;}
	.st4{fill:none;stroke:#010101;stroke-width:4;stroke-miterlimit:10;}
	.st5{fill:#EAEAEA;}
</style>
<rect x="182.75" y="103.01" class="st0" width="137.97" height="56.61"/>
<rect x="182.75" y="91.92" class="st0" width="10.73" height="8.82"/>
<rect x="310.01" y="91.83" class="st0" width="10.71" height="8.54"/>
<path class="st0" d="M182.75,117.06c-4.83,5.84-2.61,10-10.25,20.73c-10.12,14.24-23.16,19.81-27.66,21.66
	c-8.1,3.32-16.4,3.6-16.33,4.58c0.04,0.59,3.01,0.76,3.86,0.79c55.44,2.53,117.73,1.46,117.73,1.46c9.64-0.17,25.9-0.42,47.17,0.73
	c23.24,1.26,46.53,0,69.8,0.56c1.29,0.03,5.55,0.14,5.62-0.59c0.09-1.04-8.52-1.4-16.33-5.23c-21.36-10.45-21.9-33.29-36.76-45.15
	c-18.17-14.5-29.04,10.34-69.09,7.81C216.05,122.2,195.22,102,182.75,117.06z"/>
<path class="st0" d="M129.08,166.43"/>
<polygon class="st1" points="370.92,168.48 331.3,202.67 168.22,202.67 129.08,166.43 "/>
<path class="st0" d="M128.51,236.86l39.71-34.19h163.47c11.59,11.07,23.18,22.14,34.77,33.21
	C287.14,236.22,207.81,236.53,128.51,236.86z"/>
<path class="st1" d="M127.79,237.71l-30.75,14.58c41.15-0.06,82.33-0.11,123.48-0.2c20.68-5.06,41.33-10.11,62.01-15.17
	C230.95,237.17,179.37,237.43,127.79,237.71z"/>
<path class="st1" d="M366.02,236.33l30.75,14.58c-62.91-0.03-125.81-0.06-188.72-0.08c0.2-4.64,0.37-9.3,0.57-13.94
	C261.08,236.7,313.56,236.5,366.02,236.33z"/>
<path class="st2" d="M207.77,248.44"/>
<path class="st0" d="M207.24,246.64v-9.78h6.34v3.32c21.49,0.22,42.98,0.45,64.44,0.67c-0.02-1.29-0.04-2.56-0.04-3.85
	c2.22-0.06,4.43-0.08,6.67-0.14v5.51c0,1.43,0,2.84,0,4.27c5.31,7.22,10.62,14.44,15.96,21.66c-36.35-0.17-72.69-0.31-109.04-0.48
	C196.77,260.77,202,253.69,207.24,246.64z"/>
<path class="st2" d="M209.28,247.2"/>
<polygon class="st1" points="136.66,274.71 136.66,290.95 147.5,290.95 147.5,274.99 "/>
<path class="st1" d="M301.23,275.61c0,5.17,0,10.37,0,15.54c3.62,0.03,7.24,0.06,10.86,0.06c0-5.11,0-10.23,0-15.34L301.23,275.61z"
	/>
<path class="st1" d="M180.11,275.61c0,5.17,0,10.37,0,15.54c3.62,0.03,7.24,0.06,10.86,0.06c0-5.11,0-10.23,0-15.34L180.11,275.61z"
	/>
<polygon class="st1" points="293.13,291.23 293.13,314.21 385.36,313.12 385.36,291.23 "/>
<polygon class="st1" points="104.35,291.23 104.35,314.21 196.6,313.12 196.6,291.23 "/>
<path class="st0" d="M182.95,275.13c1.4,0,127.61,0,127.61,0l-10.86-7.42l-108.14,0.14L182.95,275.13z"/>
<path class="st2" d="M309.9,285.86"/>
<path class="st2" d="M96.4,253.95"/>
<path class="st0" d="M94.82,253.02c12.58,7.28,25.13,14.55,37.71,21.83c16.81,0.08,33.6,0.2,50.42,0.28
	c2.79-2.02,5.97-4.69,9.24-8.15c4.65-4.92,8.08-10,10.54-14.22C166.75,252.85,130.77,252.93,94.82,253.02z"/>
<path class="st0" d="M396.77,251.16c-11.08,7.84-22.15,15.71-33.23,23.54c-17.67,0.14-35.34,0.28-53.01,0.42
	c-2.77-1.29-6.32-3.37-9.96-6.83c-6.34-5.96-9.88-13.04-11.7-17.39C324.85,251,360.82,251.08,396.77,251.16z"/>
<path class="st1" d="M158.36,275.61c0,5.17,0,10.31,0,15.48c3.62,0,7.27,0.03,10.89,0.03c0-5.09-0.02-10.17-0.02-15.23
	L158.36,275.61z"/>
<path class="st1" d="M169.25,275.61c0,5.17,0.02,10.34,0.02,15.51c3.6,0,7.22-0.03,10.82-0.03c0-5.06,0-10.14,0-15.2L169.25,275.61z
	"/>
<path class="st1" d="M147.5,274.99c0.02,5.31,0.04,10.65,0.04,15.96c3.6,0,7.2,0,10.8,0c0-5.23,0-10.45,0-15.68L147.5,274.99z"/>
<path class="st1" d="M312.09,275.61c0,5.17,0,10.37,0,15.54c3.62,0.03,7.24,0.06,10.86,0.06c0-5.11,0-10.23,0-15.34L312.09,275.61z"
	/>
<path class="st1" d="M180.11,275.1c5.49,6.94,11,13.91,16.48,20.85h99.63c5.25-6.94,10.51-13.88,15.76-20.85
	C268.02,275.1,224.06,275.1,180.11,275.1z"/>
<path class="st1" d="M322.96,275.61c0,5.17,0,10.37,0,15.54c3.62,0.03,7.24,0.06,10.86,0.06c0-5.11,0-10.23,0-15.34L322.96,275.61z"
	/>
<path class="st1" d="M333.8,275.61c0,5.17,0,10.37,0,15.54c3.62,0.03,7.24,0.06,10.86,0.06c0-5.11,0-10.23,0-15.34L333.8,275.61z"/>
<path class="st1" d="M344.67,275.61c0,5.17,0,10.37,0,15.54c3.62,0.03,7.24,0.06,10.86,0.06c0-5.11,0-10.23,0-15.34L344.67,275.61z"
	/>
<polygon class="st0" points="132.51,274.91 132.51,295.95 136.66,295.61 136.66,274.71 "/>
<polygon class="st0" points="356.21,275.36 356.21,297.02 360.34,296.65 360.34,275.16 "/>
<rect x="196.6" y="295.95" class="st0" width="98.48" height="17.17"/>
<path class="st3" d="M307.97,314.21"/>
<path class="st0" d="M71.6,291.37c10.91-0.06,21.84-0.08,32.75-0.14v22.98l281.01-1.1v-21.89c10.75,0.06,21.51,0.08,32.26,0.14
	c0.15,57.99,0.29,115.95,0.44,173.94c-41.7-0.28-83.43-0.56-125.13-0.81c0.04-2.58,0.07-6.15,0.04-10.45
	c-0.02-4.05-0.09-8.34-0.15-10.96c-0.09-2.95-0.37-13.23-1.78-21.04c-2.41-13.49-8.71-22.76-10.43-25.15
	c-12.2-17.05-29.7-18.21-34.79-18.26c-20.06-0.17-33.23,15.2-36.13,18.71c-7.42,11.32-9.57,21.07-10.32,26.69
	c-0.55,4.16-1.12,11.86-1.08,19.81c0.02,2.92,0.13,6.49,0,12.11c-0.09,4.27-0.29,7.81-0.44,10.17c-41.92-0.08-83.84-0.2-125.79-0.28
	C71.93,407.69,71.78,349.53,71.6,291.37z"/>
<path class="st4" d="M209.7,487.34"/>
<path class="st0" d="M208.21,491.19c0-21.38,0-42.76,0-64.12c0.7-4.02,3.8-19.53,15.28-29.16c9.24-7.78,18.68-7.36,23.44-7.16
	c5.07,0.22,14.29,0.62,22.78,9.08c10.38,10.31,12.45,25.46,12.91,29.44c0.31,8.26,0.5,16.69,0.64,25.31
	c0.2,12.56,0.18,24.78,0,36.61C258.23,491.19,233.21,491.19,208.21,491.19z"/>
<path class="st1" d="M73.11,467.03c0.07,8.74,0.15,17.5,0.22,26.24c41.4-0.08,82.77-0.2,124.16-0.28
	c-0.04-9.13-0.07-18.23-0.11-27.37C155.97,466.07,114.55,466.55,73.11,467.03z"/>
<path class="st1" d="M293.85,465.76c0.09,8.79,0.2,17.62,0.29,26.41c41.31-0.34,82.62-0.67,123.92-1.01l-0.44-25.03
	C376.36,466.02,335.1,465.9,293.85,465.76z"/>
<path class="st5" d="M198.44,491.19c0,1.07,0.02,2.14,0.02,3.17c31.52-0.25,63.04-0.53,94.58-0.79c-0.02-1.01-0.02-2.02-0.04-3.03
	C261.48,490.77,229.96,490.99,198.44,491.19z"/>
<path class="st0" d="M177.37,529.18"/>
<path class="st0" d="M3.08,376.42v69.9h68.99c-0.07-23.26-0.13-46.53-0.2-69.76C48.93,376.5,25.99,376.45,3.08,376.42z"/>
<path class="st1" d="M3.08,344.89v31.52l68.77,0.14l-0.24-31.66c-3.82-0.03-7.62-0.06-11.44-0.08c0,2.81,0.02,5.62,0.02,8.43
	c-1.49,0-2.99,0.03-4.5,0.03c0.02-2.78,0.02-5.56,0.04-8.37c-8.03,0-16.07,0-24.1,0c0,2.78,0,5.56,0,8.34
	c-1.49,0.03-2.96,0.06-4.46,0.08c0-2.81,0.02-5.62,0.02-8.46C19.14,344.89,11.11,344.89,3.08,344.89z"/>
<path class="st1" d="M496.92,345.2c0,11.04,0,22.08,0,33.15c-26.38,0.11-52.76,0.25-79.15,0.37c0-11.07,0-22.14,0-33.21
	c7.35-0.11,14.71-0.25,22.08-0.37c0,2.81-0.02,5.62-0.02,8.43c1.49,0,2.98,0.03,4.5,0.03c-0.02-2.78-0.02-5.56-0.04-8.37
	c8.03,0,16.07,0,24.1,0c0,2.78,0,5.56,0,8.34c1.49,0.03,2.96,0.06,4.46,0.08c0-2.81-0.02-5.62-0.02-8.46
	C480.84,345.17,488.87,345.17,496.92,345.2z"/>
<path class="st0" d="M417.75,378.69v69.9h76.84c-0.07-23.26-0.15-46.53-0.22-69.76C468.83,378.78,443.28,378.72,417.75,378.69z"/>
</svg>
