<?xml version="1.0" encoding="utf-8"?>
<!-- Generator: Adobe Illustrator 28.3.0, SVG Export Plug-In . SVG Version: 6.00 Build 0)  -->
<svg version="1.1" id="Layer_1" xmlns="http://www.w3.org/2000/svg" xmlns:xlink="http://www.w3.org/1999/xlink" x="0px" y="0px"
	 viewBox="0 0 938 993" style="enable-background:new 0 0 938 993;" xml:space="preserve">
<g transform="translate(0.000000,993.000000) scale(0.100000,-0.100000)">
	<path d="M4344.37,9904.19c-491.49-98.22-794.75-466.16-690.18-835.66c27.19-95.1,117.12-235.42,194.51-305.58l54.38-46.77
		l-96.21-196.44l-96.21-196.44h-79.48c-98.3,0-98.3-4.68-117.12,343c-6.27,141.88-20.91,269.72-31.37,285.31
		c-12.55,17.15-43.92,26.5-92.02,26.5c-60.65,0-73.2-6.24-92.02-49.89c-10.46-28.06-27.19-176.17-35.55-327.41l-14.64-277.51
		h-296.99h-299.08l-12.55,215.15c-23.01,363.26-31.37,406.92-87.84,433.42c-58.56,29.62-127.58,7.79-144.31-45.21
		c-4.18-18.71-18.82-171.5-31.37-338.32c-14.64-208.92-35.55-346.11-66.93-436.54l-41.83-132.52l138.04-553.47
		c77.38-304.02,148.49-569.06,158.95-587.77c18.82-34.3,16.73-35.86-106.66-35.86c-230.06,0-207.05,107.58-207.05-1005.6
		c0-1018.07-2.09-1002.48,85.75-1024.31c56.47-14.03,359.73-1593.37,489.4-2549.08c71.11-534.76,77.38-487.99-62.74-487.99H2650.3
		l-6.27-88.87l-6.27-90.43l-104.57-18.71c-194.51-32.74-177.77-65.48-177.77,328.96v349.23l-177.77,10.91l-177.77,10.91v68.6v68.6
		h-110.85h-110.85l-37.65,236.98c-20.91,130.96-43.92,246.33-48.1,257.25c-6.27,10.91-33.46,20.27-58.56,20.27
		c-58.56,0-64.84-20.27-83.66-226.07c-6.27-76.39-16.73-174.62-23.01-218.27l-12.55-77.95l-133.85,4.68l-133.85,6.24v-567.5v-567.5
		l-188.23-63.92l-186.14-63.92l-6.27,204.24l-6.27,204.24l-343,201.12l-343,199.56l-52.29-37.42l-50.19-38.98l129.67-168.38
		C757.53,995.66,1617.12,431.28,2616.83,133.49C2892.91,50.86,3129.24-8.38,3141.79,0.97c18.82,15.59-75.29,1220.75-138.04,1758.63
		c-83.66,729.65-240.52,1690.03-397.38,2429.03c-69.02,327.4-125.49,603.36-125.49,611.16c0,9.35,87.84,15.59,209.15,15.59
		c158.95,0,209.15-4.68,209.15-20.27c0-10.91,23.01-132.52,50.19-269.72c29.28-135.64,58.56-285.31,64.83-328.96l14.64-82.63h217.51
		h219.6l-10.46,51.45c-6.27,26.5-20.91,162.14-33.46,299.34c-12.55,137.2-27.19,272.84-33.46,300.9l-10.46,49.89h451.75h449.66
		v-350.79V4113.8h313.72h313.72v350.79v350.79h439.2h441.3l-12.55-96.66c-8.37-54.57-25.1-212.03-37.65-350.79l-27.19-254.13h215.42
		h213.33l12.55,74.84c33.46,182.41,117.12,589.33,125.49,608.04c6.27,12.47,66.93,18.71,209.15,18.71
		c169.41,0,198.69-3.12,198.69-24.95c0-14.03-56.47-289.99-123.4-612.71c-242.61-1138.12-422.47-2422.8-501.95-3564.04
		c-20.91-308.7-37.65-562.82-35.55-564.38c4.18-4.68,529.14,163.7,654.62,210.47c432.93,163.7,874.23,403.8,1236.05,668.84
		l242.61,179.29l-56.47,21.83c-52.29,20.27-56.47,31.18-56.47,112.25v90.43l-380.64,35.86c-211.24,20.27-384.83,37.42-386.92,38.98
		c-4.18,3.12-12.55,268.16-20.91,590.89l-12.55,587.77h-196.6h-194.5v132.52v132.52h-167.32h-167.32v-132.52v-132.52h-75.29h-75.29
		l14.64,98.22c69.02,470.84,198.69,1167.74,324.18,1757.07c79.48,367.94,81.57,374.18,112.94,374.18
		c14.64,0,41.83,12.47,60.65,28.06c31.37,26.5,35.55,116.93,35.55,988.45c0,1106.94,20.91,1010.28-215.42,1010.28
		c-135.94,0-138.04,0-119.21,35.86c23.01,38.98,292.8,1105.38,292.8,1155.27c0,18.71-18.82,77.95-41.83,134.08
		c-31.37,76.39-48.1,180.85-64.83,420.95c-12.55,176.18-31.37,335.2-41.83,355.47c-16.73,29.62-31.37,35.86-96.21,31.18
		c-100.39-6.24-102.48-15.59-121.3-369.5l-16.73-282.19h-299.08h-301.17v67.04c0,35.86-10.46,174.62-20.91,307.14
		c-18.82,218.27-23.01,244.77-64.83,269.72c-56.47,34.3-73.2,32.74-121.3-3.12c-31.37-23.39-39.74-62.36-52.29-221.39
		c-6.27-106.02-18.82-244.77-25.1-305.58l-12.55-113.81h-87.84h-85.75l-87.84,180.85l-85.75,182.41l83.66,79.51
		C5902.51,9302.39,5229.06,10081.93,4344.37,9904.19z M4886.06,9805.97c240.52-67.04,439.21-226.07,512.41-408.48
		c52.29-129.4,35.55-319.61-37.65-439.66c-75.29-123.17-240.52-249.45-409.92-311.81c-127.58-46.77-150.58-49.89-357.64-49.89
		c-202.87,0-230.06,3.12-361.82,49.89c-250.97,88.87-418.29,252.57-474.76,467.72c-81.57,308.7,209.15,634.54,637.89,717.17
		C4532.6,9857.42,4741.75,9846.51,4886.06,9805.97z M5793.75,8507.27l14.64-183.97h-48.1h-48.1l20.91,299.34
		C5754.01,8948.48,5762.38,8934.45,5793.75,8507.27z M2552,8522.86c12.55-193.33,12.55-199.56-29.28-199.56
		c-48.1,0-50.19,21.83-27.19,367.94c12.55,188.65,16.73,204.24,29.28,123.17C2531.08,8762.95,2543.63,8631.99,2552,8522.86z
		 M3432.5,8593.02l14.64-269.72h-46.01c-46.01,0-46.01,1.56-33.46,191.77c14.64,207.36,33.46,360.15,43.92,350.79
		C3413.68,8864.29,3424.14,8739.57,3432.5,8593.02z M6674.25,8593.02l14.64-269.72h-46.01c-46.01,0-46.01,1.56-33.46,199.56
		c14.64,201.12,33.46,352.35,43.92,343C6655.43,8862.73,6665.89,8739.57,6674.25,8593.02z M4260.72,8555.6
		c146.4-42.09,378.55-54.57,522.86-29.62c62.74,10.91,173.59,42.09,246.79,71.72c75.29,29.62,135.94,51.45,138.04,48.33
		c2.09-1.56,37.65-74.83,79.48-162.14l75.29-160.58H4582.8c-407.83,0-742.47,4.68-742.47,9.35c0,4.68,33.46,81.07,77.38,169.94
		l75.29,160.58l77.38-37.42C4114.31,8603.93,4200.06,8572.75,4260.72,8555.6z M2913.82,7894.55c12.55-76.39,25.1-152.79,25.1-168.38
		c2.09-24.94-16.73-26.5-200.78-23.39l-202.87,4.68l-37.65,148.11c-18.82,81.07-35.55,157.47-35.55,168.38
		c-2.09,15.59,48.1,18.71,213.33,15.59l213.33-4.68L2913.82,7894.55z M3428.32,7992.77c6.27-28.06,18.82-106.02,27.19-171.5
		l12.55-121.61h-221.69c-121.3,0-221.69,4.68-221.69,12.47c-2.09,6.24-14.64,82.63-29.28,171.5l-27.19,159.03h225.88h223.79
		L3428.32,7992.77z M3986.74,7930.41c0-62.36,6.27-140.32,12.55-171.5l14.64-59.24h-232.15h-230.06l-12.55,113.81
		c-8.37,60.8-18.82,138.76-25.1,171.5l-12.55,57.69h242.61h242.61V7930.41z M4551.43,7871.17v-171.5h-227.97
		c-188.23,0-230.06,4.68-240.52,24.94c-6.27,14.03-12.55,90.43-12.55,171.5v146.55h240.52h240.52V7871.17z M5095.21,7871.17v-171.5
		h-230.06h-230.06v171.5v171.5h230.06h230.06V7871.17z M5651.53,7956.91c-6.27-46.77-18.82-124.73-25.1-171.5l-12.55-85.75h-217.51
		h-217.51v171.5v171.5h242.61h242.61L5651.53,7956.91z M6195.31,8000.57c-6.27-24.95-16.73-82.63-23.01-129.4
		c-6.27-46.77-16.73-104.46-23.01-127.84l-12.55-43.65h-219.6h-219.6l12.55,98.22c8.37,53.01,18.82,129.4,25.1,171.5l12.55,73.28
		h230.06h230.06L6195.31,8000.57z M6695.17,7977.18c-6.27-37.42-46.01-190.21-83.66-339.88c-39.74-149.67-94.12-367.94-121.3-483.31
		l-48.1-210.47l-171.5-4.68l-173.59-4.68l10.46,67.04c6.27,37.42,31.37,173.06,54.38,300.9c20.91,129.4,54.38,332.08,73.2,452.13
		c48.1,322.73,16.73,288.43,263.52,288.43h211.24L6695.17,7977.18z M6086.55,7325.49c-29.28-193.32-56.47-360.15-60.65-369.5
		c-6.27-14.03-71.11-20.27-221.69-20.27h-211.24l10.46,82.63c8.37,43.65,23.01,159.03,35.55,252.57
		c37.65,271.28,20.91,249.45,271.89,333.64c121.3,40.54,221.69,73.28,223.79,73.28C6136.75,7676.28,6113.74,7517.26,6086.55,7325.49
		z M5586.7,7478.28c-4.18-10.91-18.82-124.73-31.37-254.13c-12.55-127.84-29.28-246.33-33.46-260.36
		c-10.46-23.39-37.65-28.06-198.69-28.06h-186.14l2.09,129.4c2.09,70.16,8.37,173.06,16.73,227.62l12.55,98.22l188.23,51.45
		C5567.87,7500.11,5599.25,7504.78,5586.7,7478.28z M5074.29,7178.94c0-106.02-6.27-204.24-12.55-218.27
		c-10.46-20.27-52.29-24.95-230.06-24.95h-217.51v162.14c0,107.58,8.37,166.82,25.1,174.62c20.91,9.35,378.55,93.54,420.38,98.22
		C5068.02,7370.7,5074.29,7284.95,5074.29,7178.94z M3033.03,7166.46c6.27-54.57,18.82-127.84,25.1-163.7l14.64-67.04h-169.41
		c-190.32,0-175.68-10.91-213.33,155.91c-12.55,56.13-29.28,116.93-35.55,137.2c-10.46,34.3-6.27,34.3,175.68,34.3h188.23
		L3033.03,7166.46z M3532.89,7205.44c8.37-32.74,18.82-106.02,27.19-163.7l14.64-106.02h-213.33c-115.03,0-211.24,1.56-213.33,4.68
		c0,1.56-12.55,74.84-25.1,163.7l-25.1,159.03h211.24h211.24L3532.89,7205.44z M4016.02,7214.8c6.27-26.5,12.55-101.34,12.55-163.7
		v-115.37h-186.14h-188.23l-10.46,67.04c-6.27,35.86-16.73,109.14-23.01,163.7l-12.55,96.66h196.6h198.69L4016.02,7214.8z
		 M4551.43,7099.42v-163.7h-217.51H4118.5l-14.64,95.1c-6.27,53.01-12.55,127.84-12.55,163.7v68.6h230.06h230.06V7099.42z
		 M6760,5844.37v-935.44h-968.34h-968.34v310.26v310.25l158.95,56.13c87.84,31.18,163.13,56.13,167.32,56.13
		c4.18,0,8.37-160.58,8.37-358.59c0-308.7,4.18-358.59,31.37-358.59s31.37,70.16,31.37,537.88v537.88h167.32h167.32V5462.4
		c0-467.72,4.18-537.88,31.37-537.88c27.19,0,31.37,70.16,31.37,537.88v537.88h167.32h167.32V5462.4
		c0-441.22,4.18-537.88,29.28-537.88c37.65,0,60.65,434.98,43.92,792.01c-6.27,143.43-6.27,279.07,4.18,300.9
		c8.37,21.83,85.75,84.19,169.41,137.2l150.58,98.22l2.09-130.96c2.09-70.16,6.27-366.38,6.27-654.81
		c2.09-288.43,10.46-530.08,18.82-536.32c8.37-6.24,20.91-7.8,27.19-1.56c8.37,4.68,16.73,318.05,18.82,696.9l6.27,685.99
		l66.93,62.36l66.93,62.36h-77.38h-75.29l6.27,160.58l6.27,159.03l156.86,9.35c85.75,4.68,161.04,9.35,167.32,10.91
		S6757.91,6358.87,6760,5844.37z M2752.78,6600.52v-163.7h-167.32h-167.32v152.79c0,84.19,6.27,159.03,14.64,163.7
		c6.27,6.24,81.57,10.91,167.32,10.91h152.68V6600.52z M3150.15,6600.52v-163.7h-167.32h-167.32v152.79
		c0,84.19,6.27,159.03,14.64,163.7c6.27,6.24,81.57,10.91,167.32,10.91h152.68V6600.52z M3557.99,6600.52v-155.91l-161.04-4.68
		l-163.13-4.68v165.26v165.26l163.13-4.68l161.04-4.68V6600.52z M3961.64,6597.4l6.27-160.58H3798.5h-167.32v163.7v165.26
		l163.13-4.68l161.04-4.68L3961.64,6597.4z M4363.2,6600.52v-163.7h-167.32h-167.32v163.7v163.7h167.32h167.32V6600.52z
		 M4760.57,6600.52v-163.7h-167.32h-167.32v163.7v163.7h167.32h167.32V6600.52z M5157.95,6600.52v-163.7h-167.32h-167.32v163.7
		v163.7h167.32h167.32V6600.52z M5555.33,6600.52v-163.7h-167.32h-167.32v163.7v163.7h167.32h167.32V6600.52z M5952.7,6600.52
		v-163.7h-167.32h-167.32v163.7v163.7h167.32h167.32V6600.52z M6350.08,6600.52v-163.7h-167.32h-167.32v163.7v163.7h167.32h167.32
		V6600.52z M2752.78,5836.58v-163.7h-167.32h-167.32v163.7v163.7h167.32h167.32V5836.58z M3150.15,5836.58v-163.7h-167.32h-167.32
		v163.7v163.7h167.32h167.32V5836.58z M3568.45,5836.58v-163.7h-167.32h-167.32v163.7v163.7h167.32h167.32V5836.58z
		 M3965.82,5836.58v-163.7H3798.5h-167.32v163.7v163.7h167.32h167.32V5836.58z M4363.2,5836.58v-163.7h-167.32h-167.32v163.7v163.7
		h167.32h167.32V5836.58z M4760.57,5836.58v-163.7h-167.32h-167.32v163.7v163.7h167.32h167.32V5836.58z M5157.95,5836.58v-163.7
		h-167.32h-167.32v163.7v163.7h167.32h167.32V5836.58z M4760.57,5205.15v-296.22h-167.32h-167.32v254.13v252.57l142.22,40.54
		c77.38,23.39,152.68,42.1,167.32,43.65C4754.3,5501.38,4760.57,5432.78,4760.57,5205.15z M4361.11,5061.72l2.09-152.79h-376.46
		h-376.46v163.7v162.14l89.93,17.15c48.1,9.35,119.21,23.39,158.95,31.18c39.74,7.8,77.38,10.91,83.66,6.24
		s16.73-88.87,20.91-187.09c4.18-137.2,12.55-177.73,35.55-177.73c20.91,0,29.28,43.65,33.46,198l6.27,198l146.4,32.74l146.4,32.74
		l12.55-87.31C4352.74,5251.92,4359.01,5144.35,4361.11,5061.72z M2752.78,5072.63v-163.7h-167.32h-167.32v163.7v163.7h167.32
		h167.32V5072.63z M3158.52,5188c6.27-26.5,12.55-101.34,12.55-163.7v-115.37H2993.3h-177.77v163.7v163.7h165.22h165.22
		L3158.52,5188z M3568.45,5072.63v-163.7h-177.77H3212.9v129.4c0,202.68-4.18,198,190.32,198h165.22V5072.63z"/>
	<path d="M8713.42,2897.73c0-43.65-4.18-46.77-83.66-46.77h-83.66v-244.77v-246.33l-167.32-124.73l-167.32-126.28l4.18-466.16
		l6.27-467.72l125.49,121.61c271.89,261.92,516.59,589.33,692.27,924.53c87.84,165.26,215.42,505.14,248.88,657.93l14.64,65.48
		h-294.89h-294.89V2897.73z"/>
</g>
</svg>
