<?xml version="1.0" standalone="no"?>
<!DOCTYPE svg PUBLIC "-//W3C//DTD SVG 20010904//EN"
 "http://www.w3.org/TR/2001/REC-SVG-20010904/DTD/svg10.dtd">
<svg version="1.0" xmlns="http://www.w3.org/2000/svg"
 width="225.000000pt" height="225.000000pt" viewBox="0 0 225.000000 225.000000"
 preserveAspectRatio="xMidYMid meet">

<g transform="translate(0.000000,225.000000) scale(0.100000,-0.100000)"
fill="#000000" stroke="none">
<path d="M1050 2203 c-38 -14 -93 -60 -114 -97 -13 -23 -36 -85 -52 -140 -17
-61 -34 -100 -43 -103 -85 -26 -101 -51 -101 -149 0 -63 2 -68 36 -100 l35
-34 -30 0 c-72 0 -111 -44 -111 -127 -1 -43 -4 -50 -32 -68 -17 -11 -41 -33
-52 -48 -21 -28 -21 -38 -21 -459 l0 -430 33 -29 c22 -20 43 -29 67 -29 l35 0
0 -107 c0 -129 10 -170 51 -209 l30 -29 344 0 344 0 30 29 c36 35 51 80 51
154 0 50 1 52 28 52 44 0 89 34 102 77 8 26 10 181 8 495 -3 444 -4 457 -24
485 -11 15 -35 37 -52 48 -28 18 -31 25 -32 67 0 84 -38 128 -110 128 l-31 0
35 34 c34 32 36 37 36 100 0 98 -16 123 -101 149 -10 3 -26 42 -45 108 -50
176 -113 240 -238 238 -34 0 -68 -3 -76 -6z m157 -84 c18 -11 40 -33 47 -47
13 -25 66 -190 66 -205 0 -4 -88 -7 -195 -7 -107 0 -195 4 -195 8 0 21 59 192
73 212 43 62 138 80 204 39z m231 -387 c2 -31 -2 -60 -9 -68 -16 -19 -588 -21
-607 -2 -13 13 -17 110 -5 121 4 4 144 6 312 5 l306 -3 3 -53z m-508 -159 c-8
-3 -23 -10 -32 -15 -13 -6 -18 -5 -18 7 0 10 10 15 33 14 17 0 25 -3 17 -6z
m265 -7 c-16 -7 -39 -23 -49 -35 l-19 -21 -26 24 c-14 14 -37 29 -51 35 -19 7
-2 10 75 10 91 0 97 -1 70 -13z m175 -1 c0 -12 -5 -13 -17 -7 -10 5 -25 12
-33 15 -8 3 0 6 18 6 22 1 32 -4 32 -14z m-571 -69 c8 -9 11 -53 9 -131 -3
-97 -6 -120 -20 -128 -12 -8 -21 -7 -32 2 -13 11 -16 36 -16 136 0 67 3 125 7
128 11 12 40 8 52 -7z m232 4 c10 -6 19 -17 19 -26 0 -35 -114 -42 -127 -7
-13 34 63 57 108 33z m280 0 c10 -6 19 -17 19 -26 0 -35 -114 -42 -127 -7 -13
34 63 57 108 33z m194 -124 c0 -109 -3 -130 -17 -139 -12 -8 -21 -7 -32 2 -13
11 -16 36 -16 130 0 123 7 144 45 139 19 -3 20 -10 20 -132z m-345 32 c49 -54
41 -68 -35 -68 -53 0 -65 3 -65 16 0 17 49 82 63 83 4 1 21 -14 37 -31z m-190
-38 c10 0 16 -11 18 -27 1 -16 13 -38 27 -50 23 -20 37 -23 110 -23 73 0 87 3
110 23 14 12 26 34 27 49 2 23 8 28 40 33 21 4 40 11 44 16 10 17 24 9 24 -13
-1 -33 -37 -108 -68 -141 -48 -51 -99 -71 -177 -71 -78 0 -129 20 -177 71 -31
32 -67 108 -68 139 0 21 2 21 38 8 20 -7 44 -13 52 -14z m-276 -173 c12 -13
28 -26 35 -28 9 -3 8 -15 -5 -49 -10 -28 -18 -89 -22 -162 l-4 -118 -34 0 -34
0 0 218 c0 191 2 221 18 242 l17 25 3 -52 c2 -36 9 -58 26 -76z m926 -188 l0
-269 -34 0 -34 0 -4 168 c-4 125 -9 178 -22 212 -13 34 -14 46 -5 49 35 11 59
55 59 105 l1 51 19 -24 c19 -22 20 -39 20 -292z m-703 161 c121 -106 296 -105
418 2 l48 42 28 -34 c48 -57 61 -110 66 -282 l6 -158 -54 0 c-68 0 -117 -25
-145 -74 -12 -20 -31 -44 -44 -53 -34 -24 -50 -74 -50 -158 0 -146 31 -175
191 -175 l101 0 -4 -64 c-7 -112 12 -106 -353 -106 -381 0 -350 -14 -350 159
l0 116 111 5 c121 5 138 12 161 67 17 43 17 174 -1 218 -8 19 -26 40 -40 46
-13 6 -27 21 -30 33 -3 12 -19 35 -36 51 -27 26 -41 31 -98 35 l-67 5 1 105
c2 114 17 170 60 227 14 18 27 33 30 33 3 0 26 -18 51 -40z m-24 -417 c8 -10
17 -29 19 -43 2 -17 14 -30 36 -39 l33 -15 -3 -95 -3 -96 -159 -3 c-108 -2
-163 1 -172 9 -19 15 -20 269 -2 287 8 8 50 12 123 12 94 0 114 -3 128 -17z
m711 -99 c13 -12 16 -40 16 -140 0 -69 -5 -134 -10 -145 -10 -17 -23 -19 -160
-19 -81 0 -155 3 -164 6 -13 5 -16 24 -16 101 l0 94 30 10 c22 8 32 20 40 48
13 51 36 60 152 60 75 1 100 -2 112 -15z"/>
</g>
</svg>
