<?xml version="1.0" encoding="utf-8"?>
<!-- Generator: Adobe Illustrator 28.3.0, SVG Export Plug-In . SVG Version: 6.00 Build 0)  -->
<svg version="1.1" id="Layer_1" xmlns="http://www.w3.org/2000/svg" xmlns:xlink="http://www.w3.org/1999/xlink" x="0px" y="0px"
	 viewBox="0 0 512 512" style="enable-background:new 0 0 512 512;" xml:space="preserve">
<g transform="translate(0.000000,512.000000) scale(0.100000,-0.100000)">
	<path d="M4515,3555c88,20,230,56,316,80c267,75,298,92,286,155c-7,31-180,335-208,365c-18,18-36,20-222,25l-203,5l-76,38
		c-127,62-209,156-323,370c-36,68-66,113-81,119c-17,8-68,1-226-30c-466-94-701-116-1223-116c-225,1-450,6-500,11l-526.9,68.5
		c-36.8,7.3-90.6,17.8-170.1,33.5c-226,45-226,45-250,31c-9-6-42-58-74-118c-113-213-195-307-322-369l-76-38l-203-5
		c-186-5-204-7-222-25c-32-34-203-338-208-371c-4-23,0-37,15-52c28-28,197-80,472-148c124-30,239-58,255-62l30-8V1595l-201-3
		c-256-3-238,11-242-192l-3-148l-64-4c-106-7-105-3-105-250c0-195,1-209,20-228c20-20,33-20,815-20h795V597c0-148,1-154,23-175
		l23-22h1451l21,23c21,22,22,33,22,175v152h325c312,0,326,1,345,20c30,30,27,83-6,109c-26,20-38,21-345,21h-319v190h1480V900h-244
		c-231,0-245-1-270-21c-33-26-36-79-6-109c19-19,33-20,325-20c292,0,306,1,325,20c19,19,20,33,20,228c0,247,1,243-105,250l-64,4
		l-3,148c-4,203,14,189-242,192l-201,3l-3,954c-1,525,1,958,5,962C4352,3515,4427,3535,4515,3555z M1790,900H310v190h1480V900z
		 M1790,1250H480v190h1310V1250z M1470,2000l-2-202l-3-203h-170l-3,203l-2,202H1470z M1290,2560h180l-2-202l-3-203h-170l-3,203
		L1290,2560z M1788,1798l-3-203l-82-3l-83-3v411h170L1788,1798z M1788,2358l-3-203l-82-3l-83-3v411h170L1788,2358z M3180,550H1940
		v200h1240V550z M3180,900H1940v190h1240V900z M3180,1250H1940v190h1240V1250z M2480,2000v-411l-82,3l-83,3l-3,203l-2,202H2480z
		 M2310,2560h170v-411l-82,3l-83,3l-3,203L2310,2560z M2810,2000l-2-202l-3-203l-82-3l-83-3v411H2810z M2640,2149v411h170l-2-202
		l-3-203l-82-3L2640,2149z M3228,2715l-24-28l-24-28V1600h-220v1059l-24,28l-24,28h-704l-24-28l-24-28V1600h-220v1059l-24,28l-24,28
		h-704l-24-28l-24-28V1600H930v1340h3260V1600h-210v1059l-24,28l-24,28H3228z M930,3090v201c0,186,1,200,18,195c9-3,91-16,182-30
		c173-26,460-60,595-70c44-4,101-9,128-12l47-6v-278H930z M2049,3355h1022l-6-260H2055L2049,3355z M3220,3090v278l48,6
		c26,3,83,8,127,12c201,15,652,72,745,94c19,4,38,8,43,9c4,1,7-89,7-199v-200H3220z M3828,2358l-3-203h-170l-3,203l-2,202h180
		L3828,2358z M3830,2000l-2-202l-3-203h-170l-3,203l-2,202H3830z M3418,2152l-83,3l-3,203l-2,202h170v-411L3418,2152z M3500,2000
		v-411l-82,3l-83,3l-3,203l-2,202H3500z M4630,1440v-190H3330v190H4630z M4310,3676c-220-58-564-107-1010-143
		c-307-25-1173-25-1480,0c-410,33-743,79-1076,148c-166,34-467,111-530,136c-21,8-20,11,34,106l56,97h918l30,30c25,26,29,36,24,63
		c-12,60-31,67-192,67H939l42,43c53,54,104,129,164,240c44,82,50,88,74,84c14-2,100-19,191-36c37-7.1,67.6-12.6,93-16.5l0,0
		c17.2-2.7,32.1-4.6,45-5.7l388.7-49.3c32.3-10.1,263.1-26.6,483.4-34.5c185-7,551,8,770,31c78.1,7.9,187.4,21.5,278,34
		c7.1,1.4,14.3,2.7,21.6,4c53.8,9.2,108.8,19.4,161.8,32.1c5,1.2,10.2,2.5,15.5,3.8c2.5,1,5.1,1.7,7.9,2c25.3,9.1,85.6,27,125.7-3.3
		c8.3-6.2,13.7-13,29.7-43.2c35.2-66.3,58-126.2,77.6-179.2c6.3-17.1,14.8-40.1,24.6-67.5c7.6-10.7,7.8-26.9,1.4-37.8
		c-15.6-26.6-56.4-36-50.9-72.4c0.6-4.1,1-3.6,18.1-40c6-12.8,10.8-23.3,13.9-30.1c5.7-0.3,14-0.6,24-1c57-2,106.6-1.6,163.6,0
		c65.5,1.9,73.5,3.5,162.8,7.1c50.3,2,91.1,3.3,116.9,4c0.7,0.2,1.3,0.5,2,0.6c58.1,11.3,119.8,15.7,178.2,3.7
		c7.6,2,16,1.5,23.7-1.2c0,0,0,0,0.1,0c-0.8,0.3-0.5,0.3,0.8-0.1c1.3-0.1,2.7-0.2,3.2-0.2c5.6-0.3,11.1-0.7,16.7-1.4
		c1-0.1,1.9-0.4,2.9-0.5c0.6-0.1,1.3,0,1.9-0.1c0,0,0.5,0,1-0.1c21.7-1.8,39.3-11.5,39.3-11.5c25.3-14,36.5-39.6,43.7-56.2
		c2.1-4.8,3.6-8.9,4.5-11.7c1.9-4.8,3.9-9.6,5.8-14.5c0.6-1.4,1.1-2.9,1.7-4.3c2.4-5.4,4.7-10.9,7-16.4c3.9-9.6,7.7-18.2,11.3-25.7
		c5.2-10.7,10.6-20.8,13.8-26.2c0.4-0.7,2.3-3.9,4.9-8.4c0.9-1.6,1.8-3,2.4-4.2c0,0,0.5-0.9,1-1.8c12.4-21.8,12.4-32.3,12.4-32.3
		c-0.3-12-19.1-21.4-113.3-58.2c-2.1-0.8-4.6-1.8-6.6-2.6C4616.6,3764.2,4431,3708.2,4310,3676z"/>
	<path d="M6368.2,4262.1"/>
	<polyline points="4382.1,4048.4 4585.9,4051.6 4585.9,4065.7 4382.1,4065.7 	"/>
	<polyline points="3910.8,897.8 4399.2,899 4399.2,751.1 3910.8,751.7 	"/>
</g>
</svg>
