<?xml version="1.0" encoding="utf-8"?>
<!-- Generator: Adobe Illustrator 28.3.0, SVG Export Plug-In . SVG Version: 6.00 Build 0)  -->
<svg version="1.1" id="Layer_1" xmlns="http://www.w3.org/2000/svg" xmlns:xlink="http://www.w3.org/1999/xlink" x="0px" y="0px"
	 viewBox="0 0 737 630" style="enable-background:new 0 0 737 630;" xml:space="preserve">
<g transform="translate(0.000000,630.000000) scale(0.100000,-0.100000)">
	<path d="M3685.07,6177.28v-124.1l-83.85-22.06c-248.61-67.56-458.98-248.2-547.24-467.44c-16.18-41.37-39.72-148.92-52.96-238.55
		c-11.77-89.63-58.84-347.48-101.5-574.99l-79.44-410.9l-335.41-315.76c-183.89-172.36-336.88-313-339.82-311.63
		c-1.47,2.76-7.36,198.56-11.77,437.1l-7.36,434.35l-38.25,31.71c-35.31,28.96-48.55,30.34-286.86,30.34
		c-245.67,0-250.08,0-285.39-34.47l-36.78-33.09v-747.35v-748.73l-132.4-125.48c-163.29-157.19-198.6-220.62-198.6-365.4
		c0-82.73,7.36-118.58,38.25-179.25c47.07-92.38,142.7-183.39,229.49-216.48l63.26-24.82V1126.47V82.66l35.31-38.61l35.31-38.61
		l230.96-4.14c264.8-5.52,308.93,4.14,339.82,74.46c17.65,38.61,20.6,255.09,20.6,1221.68v1176.18l147.11,137.89l147.11,137.89
		V1689.05V630.07l-79.44-81.35c-97.09-97.9-150.05-197.18-172.12-328.17c-16.18-86.87-14.71-106.17,5.88-147.54
		c13.24-26.2,42.66-53.78,63.26-60.67c25.01-9.65,636.98-12.41,1722.64-11.03l1684.39,4.14l35.31,38.61
		c88.26,96.52,7.35,365.4-157.41,519.84c-72.08,67.56-198.6,137.89-280.98,157.19l-41.19,8.27v934.88v933.5h408.96h407.49
		l91.21,39.99c158.88,67.56,254.5,193.04,276.56,357.13c14.71,103.42-30.89,244.06-101.5,321.28
		c-27.95,31.71-228.02,176.5-445.74,322.66c-673.76,455.03-1019.46,690.82-1025.35,700.47c-5.88,11.03-173.59,910.06-200.07,1078.28
		c-45.6,290.94-295.69,544.65-613.44,620.49l-63.26,15.17v122.72V6300h-132.4h-132.4V6177.28z M4057.26,5758.1
		c167.7-78.6,292.75-239.92,313.34-412.28l10.3-79.97h-556.07h-556.07l8.83,81.35c13.24,137.89,101.5,282.67,220.66,362.64
		c23.54,16.55,80.91,44.12,126.51,62.05c70.61,27.58,101.5,31.71,216.25,27.58C3949.87,5796.71,3988.12,5788.44,4057.26,5758.1z
		 M4355.89,4973.52c-16.18-79.97-85.32-188.91-158.88-253.71c-310.4-271.64-812.04-129.61-915.01,260.61l-8.83,37.23h545.77h547.24
		L4355.89,4973.52z M1860.93,3680.14c0-394.36-2.94-717.01-7.36-717.01c-2.94,0-29.42,11.03-58.84,23.44l-51.49,23.44v693.57v693.57
		h58.84h58.84V3680.14z M4282.33,4307.53c375.13-67.56,653.16-384.71,653.16-745.97c0-113.07-1.47-117.2-38.25-129.61
		c-20.59-8.27-66.2-33.09-100.03-55.16l-60.31-41.37l-1015.05,2.76l-1015.05,4.14l1.47,172.36c0,135.13,7.36,193.04,32.36,268.88
		c88.27,271.64,347.18,483.98,647.28,530.87C3515.9,4333.73,4161.71,4329.59,4282.33,4307.53z M5618.08,3489.86
		c219.19-147.54,420.73-288.18,445.74-310.25c98.56-86.87,95.62-205.45-7.35-284.05l-54.43-42.75h-247.14h-248.61l11.77,52.4
		c23.54,93.76,13.24,224.76-22.07,301.97c-38.25,79.97-150.05,187.53-228.02,217.86l-50.02,19.3l-8.83,128.24
		c-5.88,70.32-14.71,146.16-19.12,168.22C5181.17,3789.07,5132.62,3816.65,5618.08,3489.86z M2287.54,2970.02l-147.11-137.89v256.47
		v256.47l144.17,132.37l142.7,133.75l4.41-250.96l2.94-250.96L2287.54,2970.02z M5167.93,3189.26
		c101.5-56.53,129.46-177.87,63.26-264.74c-39.72-52.4-86.79-73.08-166.23-74.46c-66.2,0-120.63,30.34-158.88,89.63
		c-76.5,117.2,19.12,271.64,166.23,271.64C5104.67,3211.32,5147.33,3201.67,5167.93,3189.26z M4616.27,3001.73
		c4.41-48.26,13.24-100.66,19.12-117.2l8.83-31.71h-972.39h-972.39v117.2v117.2h954.73h953.26L4616.27,3001.73z M1700.58,2749.4
		c170.65-84.11,105.92-337.82-85.32-340.58c-88.27-1.38-148.58,35.85-183.89,108.93c-25.01,53.78-27.95,71.7-13.24,113.07
		c8.83,27.58,25.01,59.29,35.31,70.32C1510.81,2770.08,1615.26,2789.39,1700.58,2749.4z M3137.83,2135.8
		c45.6-35.85,125.04-44.12,345.7-38.61l186.83,4.14l-7.36-41.37c-66.2-308.87-291.27-581.88-603.14-728.05
		c-89.74-42.75-161.82-64.81-319.23-97.9l-41.19-8.27v682.54v681.16l195.65,4.14l194.18,4.14l7.36-217.86
		C3104,2171.65,3105.47,2159.24,3137.83,2135.8z M4276.45,2509.48c1.47-44.12,1.47-97.9-2.94-117.2l-7.35-37.23h-448.68h-448.68
		l-4.41,121.34l-4.41,121.34l456.04-4.14l454.57-4.14L4276.45,2509.48z M4898.72,2590.83h44.13l-2.94-678.41l-2.94-679.78
		l-48.55,5.52c-217.72,20.68-509,177.87-667.87,358.51c-120.63,136.51-241.26,375.05-241.26,475.71c0,27.58,7.36,28.96,242.73,28.96
		h242.73l39.72,38.61c41.19,37.23,41.19,38.61,45.6,248.2l4.41,209.59l150.05-2.76C4786.92,2593.59,4875.18,2592.21,4898.72,2590.83
		z M1860.93,1232.64V246.74h-58.84h-58.84v962.45v962.45l48.55,22.06c25.01,11.03,51.49,22.06,58.84,23.44
		C1856.52,2217.15,1860.93,1774.54,1860.93,1232.64z M4008.71,1443.61c211.84-235.79,485.46-388.84,798.8-446.76l127.98-23.44
		V853.45V733.49l-67.67-17.93c-185.36-49.64-366.3-222-425.14-406.77l-17.65-55.15l-470.75-4.14l-469.28-2.76L3460,319.82
		c-64.73,193.04-244.2,350.23-457.51,404.01c-41.19,11.03-126.51,19.3-188.3,19.3h-114.74v115.83v115.83l100.03,15.17
		c398.66,63.43,759.08,297.84,965.03,628.77l57.37,89.63l60.31-96.52C3914.56,1559.43,3971.94,1483.59,4008.71,1443.61z
		 M3026.03,443.92c70.61-37.23,173.59-147.54,173.59-184.77c0-6.89-163.29-12.41-367.77-12.41c-201.54,0-367.77,5.52-367.77,11.03
		c0,6.89,19.12,38.61,44.13,73.08C2621.48,489.43,2845.09,539.07,3026.03,443.92z M5198.82,474.26
		c83.85-27.58,142.69-68.94,194.18-135.13c73.55-95.14,85.32-92.38-325.11-92.38h-367.77l27.95,52.4
		c41.19,75.84,129.46,146.16,217.72,176.5C5019.35,500.46,5123.8,499.08,5198.82,474.26z"/>
</g>
</svg>
