<?xml version="1.0" encoding="UTF-8"?>
<svg id="Layer_2" data-name="Layer 2" xmlns="http://www.w3.org/2000/svg" viewBox="0 0 71.53 161.88">
  <defs>
    <style>
      .cls-1 {
        fill: none;
        stroke: #000;
        stroke-linecap: round;
        stroke-linejoin: round;
        stroke-width: 3px;
      }
    </style>
  </defs>
  <g id="Layer_1-2" data-name="Layer 1">
    <g>
      <path class="cls-1" d="M60.28,57.38c3.92,1.11,4.41,4.71,5.17,7.77,1.45,5.8,2.3,11.71,2.65,17.73.6,10.33.56,20.68,1.04,31,.47,10.26-.04,20.52.67,30.75.37,5.25.09,10.5.22,15.75"/>
      <path class="cls-1" d="M1.53,160.38c-.14-8.59.26-17.17.46-25.75.18-7.58.22-15.17.46-22.75.31-9.92.29-19.84,1.01-29.75.41-5.67,1.25-11.24,2.6-16.74.45-1.84.77-3.76,2.18-5.29.23-.25,1.46-1.92,1.68-1.11.16.59.97-.65,1.05-.87,1.08-2.98,2.2-6.01,2.27-9.23.04-1.84.07-3.66.19-5.51.47-7.6,3.06-14.7,5.54-21.68,2.55-7.2,7.06-13.55,13.07-18.55,2.94-2.45,4.76-1.97,7.23.25,5.15,4.65,9.18,10.12,12.05,16.47.99,2.2,1.25,4.63,2.27,6.74,2.42,5.01,2.96,10.44,3.92,15.78.85,4.73-.03,9.74,2.25,14.26.11.23.39.49.07,1.01-1.94,3.1-1.28,6.59-1.29,9.97-.04,9.4.25,18.78-2.38,28.03-1.44,5.08-4.4,8.21-9.14,9.38-7.59,1.87-15.34,1.75-22.97.02-3.61-.82-6.83-2.96-8.16-6.48-1.44-3.81-2.56-7.82-2.85-11.96-.43-6.07-.63-12.16-.51-18.25.02-.86-.13-1.76.5-2.5,0,0,.74-3.55-2.56-6.53"/>
      <path class="cls-1" d="M19.53,27.13c1.53,1.42,1.49,3.46,1.97,5.26,2.16,8.15,4.11,16.35,6.31,24.48,1.76,6.48,3.51,12.95,5,19.5.54,2.38,1.47,4.67,2.22,7.01"/>
      <path class="cls-1" d="M51.78,27.13c-1.66,1.76-1.68,4.08-2.31,6.23-2.1,7.21-3.9,14.48-5.72,21.76-1.44,5.78-3.32,11.46-4.66,17.27-.85,3.69-2.13,7.26-2.82,10.98"/>
      <path class="cls-1" d="M56.03,94.38c-4.66-1.44-9.47-2.21-14.26-2.94-5.07-.77-10.18-.33-15.24.44-3.81.58-7.57,1.37-11.25,2.5"/>
      <path class="cls-1" d="M13.78,49.88c2.01.49,2.92,2.05,3.76,3.74,4.31,8.68,8.64,17.35,13,26,.65,1.3,1.49,2.51,2.24,3.76"/>
      <path class="cls-1" d="M57.53,50.13c-1.86.08-2.98,1.22-3.74,2.75-4.18,8.41-8.32,16.84-12.52,25.24-.77,1.53-1.1,3.32-2.48,4.51"/>
      <path class="cls-1" d="M57.78,65.38c-1.55-.28-2.47.72-3.23,1.76-3.7,5.06-7.32,10.18-11.05,15.21-.54.73-.85,1.43-.97,2.28"/>
      <path class="cls-1" d="M28.53,84.63c-.63-2.53-2.21-4.4-3.54-6.45-1.89-2.92-4.03-5.65-5.67-8.73-1.6-3-3.81-4-6.68-3.93"/>
      <path class="cls-1" d="M37.53,83.88c-1.28-.3-2.45-.14-3.77.19-6.55,1.63-13.15,3.06-19.73,4.56"/>
      <path class="cls-1" d="M38.03,84.13c.36.35.68.72,1.25.76,6.1.39,11.8,2.67,17.75,3.74"/>
    </g>
  </g>
</svg>