<?xml version="1.0" standalone="no"?>
<!DOCTYPE svg PUBLIC "-//W3C//DTD SVG 20010904//EN"
 "http://www.w3.org/TR/2001/REC-SVG-20010904/DTD/svg10.dtd">
<svg version="1.0" xmlns="http://www.w3.org/2000/svg"
 width="189.000000pt" height="190.000000pt" viewBox="0 0 189.000000 190.000000"
 preserveAspectRatio="xMidYMid meet">

<g transform="translate(0.000000,190.000000) scale(0.100000,-0.100000)"
fill="#000000" stroke="none">
<path d="M860 1710 l0 -60 -30 0 c-25 0 -30 -4 -30 -24 0 -19 6 -25 28 -28 23
-3 27 -8 30 -40 3 -36 2 -38 -27 -38 -31 0 -31 -1 -31 -53 l0 -53 -85 -42
c-51 -25 -99 -42 -120 -42 -32 0 -35 -2 -35 -30 0 -30 0 -30 59 -30 l59 0 26
-46 c21 -38 26 -60 26 -120 l0 -74 -110 0 -110 0 0 -25 c0 -22 4 -25 39 -25
37 0 39 -1 60 -56 16 -43 21 -78 21 -155 0 -90 -2 -99 -19 -99 -11 0 -58 -47
-122 -121 l-104 -121 -3 106 c-3 106 -3 106 -28 106 l-25 0 3 -157 3 -158 589
-3 c465 -2 591 0 598 10 4 7 8 79 8 161 l0 147 -30 0 -29 0 -3 -104 -3 -103
-100 118 c-72 85 -106 118 -122 119 -22 0 -23 3 -23 98 1 77 6 108 24 152 21
53 23 55 64 58 37 3 42 6 42 27 0 24 -1 24 -112 27 l-113 3 -3 70 c-2 63 1 75
28 118 30 47 30 47 85 47 54 0 55 0 55 30 0 28 -3 30 -37 30 -25 1 -66 16
-118 43 l-80 42 -3 53 c-3 48 -5 52 -28 52 -21 0 -24 5 -24 34 0 30 3 35 28
38 21 2 28 9 30 31 3 24 0 27 -27 27 l-31 0 0 60 0 60 -70 0 -70 0 0 -60z m80
-25 c0 -24 -5 -35 -15 -35 -10 0 -15 11 -15 35 0 24 5 35 15 35 10 0 15 -11
15 -35z m0 -131 c0 -45 -24 -42 -28 4 -2 24 1 32 12 32 12 0 16 -10 16 -36z
m60 -109 c0 -12 -14 -15 -70 -15 -56 0 -70 3 -70 15 0 12 14 15 70 15 56 0 70
-3 70 -15z m60 -95 l35 -19 -165 -1 -165 0 30 20 c43 28 213 28 265 0z m38
-102 c-15 -22 -22 -23 -169 -26 -136 -2 -155 -1 -166 15 -7 9 -13 20 -13 25 0
4 82 8 181 8 l181 0 -14 -22z m-30 -150 l-3 -63 -137 -3 -138 -3 0 66 0 65
140 0 141 0 -3 -62z m127 -145 c-4 -10 -9 -25 -12 -34 -4 -13 -27 -17 -131
-22 -70 -4 -181 -7 -248 -7 l-121 0 -16 40 -15 40 275 0 c258 0 275 -1 268
-17z m-197 -200 l3 -83 -71 0 -70 0 0 85 0 86 68 -3 67 -3 3 -82z m162 2 l0
-85 -55 0 -55 0 0 78 c0 43 3 82 7 85 3 4 28 7 55 7 l48 0 0 -85z m-360 -5 l0
-80 -55 0 -55 0 0 80 0 80 55 0 55 0 0 -80z m240 -161 c0 -18 -8 -19 -110 -19
-102 0 -110 1 -110 19 0 24 22 27 138 23 73 -3 82 -6 82 -23z m-280 1 c0 -13
-7 -20 -19 -20 -17 0 -20 -8 -23 -47 -3 -44 -5 -48 -30 -51 -26 -3 -28 -7 -28
-48 0 -32 -4 -44 -15 -44 -12 0 -15 19 -15 115 l0 115 65 0 c58 0 65 -2 65
-20z m460 -95 c0 -96 -3 -115 -15 -115 -11 0 -15 12 -15 45 0 41 -2 45 -25 45
-23 0 -25 3 -25 50 0 43 -3 50 -20 50 -13 0 -20 7 -20 20 0 18 7 20 60 20 l60
0 0 -115z m-640 -25 l0 -90 -80 0 -80 0 76 90 c42 50 78 90 80 90 2 0 4 -40 4
-90z m839 -73 c13 -16 8 -17 -63 -17 l-76 0 0 90 0 90 63 -73 c34 -39 68 -80
76 -90z m-339 98 l0 -26 -152 3 c-150 3 -153 3 -156 26 l-3 22 155 0 156 0 0
-25z m58 -95 c-2 -12 -6 -21 -10 -20 -5 0 -98 0 -208 0 -193 0 -200 1 -200 20
0 19 7 20 211 20 206 0 210 0 207 -20z"/>
</g>
</svg>
