<?xml version="1.0" encoding="utf-8"?>
<!-- Generator: Adobe Illustrator 28.3.0, SVG Export Plug-In . SVG Version: 6.00 Build 0)  -->
<svg version="1.1" id="Layer_1" xmlns="http://www.w3.org/2000/svg" xmlns:xlink="http://www.w3.org/1999/xlink" x="0px" y="0px"
	 viewBox="0 0 225 225" style="enable-background:new 0 0 225 225;" xml:space="preserve">
<g transform="translate(0.000000,225.000000) scale(0.100000,-0.100000)">
	<path d="M1087.06,1804.65v-132.99l-74.39-23.07C902.47,1613.3,784,1483.02,784,1394.81c0-14.93-9.64-31.21-20.66-35.28
		c-15.15-6.79-20.66-29.86-20.66-88.21v-80.07h-55.1c-30.31,0-55.1,6.79-55.1,13.57c0,8.14-15.15,13.57-34.44,13.57
		c-19.29,0-34.44-5.43-34.44-13.57c0-8.14-75.76-13.57-201.12-13.57H162.75l-28.93-67.85c-26.17-62.43-31.68-67.85-74.39-67.85H12.6
		V946.97c0-63.78,5.51-108.57,13.78-108.57S40.15,693.2,40.15,431.28V24.15h172.19c106.07,0,172.19,5.43,172.19,13.57
		S453.4,51.29,563.6,51.29s179.08-5.43,179.08-13.57s135-13.57,378.82-13.57s378.82,5.43,378.82,13.57s68.88,13.57,179.08,13.57
		s179.08-5.43,179.08-13.57s66.12-13.57,172.19-13.57h172.19v407.13c0,261.92,5.51,407.13,13.78,407.13s13.78,44.78,13.78,108.57
		v108.57h-45.46c-41.33,0-48.21,5.43-74.39,67.85l-28.93,67.85H1880.5c-125.35,0-201.12,5.43-201.12,13.57
		c0,8.14-15.15,13.57-34.44,13.57c-19.29,0-34.44-5.43-34.44-13.57c0-6.79-24.8-13.57-55.1-13.57h-55.1v80.07
		c0,58.35-5.51,81.43-20.66,88.21c-11.02,4.07-20.66,20.36-20.66,35.28c0,88.21-118.47,218.49-228.67,253.78
		c-61.99,19-74.39,28.5-74.39,54.28c0,29.86,4.13,31.21,103.31,31.21h103.31v101.78v101.78h-137.75h-137.75V1804.65z
		 M1293.68,1842.65c0-23.07-9.64-27.14-68.88-27.14s-68.88,4.07-68.88,27.14s9.64,27.14,68.88,27.14
		S1293.68,1865.72,1293.68,1842.65z M1431.44,1165.46v-119.42l-34.44,6.79c-31.68,5.43-34.44,10.86-34.44,85.5
		c0,76-1.38,80.07-34.44,80.07s-34.44-2.71-34.44-86.85c0-84.14,0-85.5-34.44-78.71c-31.68,5.43-34.44,10.86-34.44,85.5
		c0,76-1.38,80.07-34.44,80.07s-34.44-4.07-34.44-81.43c0-77.35-1.38-81.43-34.44-81.43s-34.44,4.07-34.44,81.43
		c0,77.35-1.38,81.43-34.44,81.43s-34.44-4.07-34.44-80.07c0-74.64-2.76-80.07-34.44-85.5c-34.44-6.79-34.44-5.43-34.44,78.71
		c0,84.14-1.38,86.85-34.44,86.85s-34.44-4.07-34.44-80.07c0-74.64-2.76-80.07-34.44-85.5l-34.44-6.79v119.42v120.78h309.94h309.94
		V1165.46z M405.19,1096.25c-4.13-6.79-22.04-20.36-38.57-28.5c-30.31-16.29-30.31-16.29-4.13,13.57
		C388.66,1109.82,421.72,1122.04,405.19,1096.25z M1892.9,1082.68c13.78-14.93,19.29-27.14,11.02-27.14
		c-6.89,0-24.8,12.21-38.57,27.14s-19.29,27.14-11.02,27.14C1861.22,1109.82,1879.13,1097.61,1892.9,1082.68z M350.09,946.97
		c0-33.93-1.38-33.93-133.62-38l-135-4.07v42.07v42.07l135-4.07C348.71,980.9,350.09,980.9,350.09,946.97z M1465.87,946.97v-33.93
		l-341.62-4.07c-294.79-2.71-341.62,0-348.51,17.64c-5.51,10.86-5.51,29.86,0,40.71c6.89,17.64,53.72,20.36,348.51,17.64
		l341.62-4.07V946.97z M2161.52,946.97v-40.71h-130.86c-136.37,0-159.79,9.5-139.13,61.07c5.51,16.29,34.44,20.36,139.13,20.36
		h130.86V946.97z M315.65,465.2V92H212.34H109.02v373.2v373.2h103.31h103.31V465.2z M742.68,478.77V119.15H563.6H384.53v359.63
		V838.4H563.6h179.08V478.77z M1431.44,465.2c0-358.27-1.38-373.2-26.17-373.2c-16.53,0-46.84,27.14-77.14,67.85
		c-46.84,63.78-53.72,67.85-111.58,67.85c-55.1,0-60.61,2.71-60.61,33.93c0,27.14-6.89,33.93-34.44,33.93
		c-27.55,0-34.44-6.79-34.44-33.93c0-31.21-5.51-33.93-60.61-33.93c-57.86,0-64.74-4.07-111.58-67.85
		C884.56,119.15,854.26,92,837.73,92c-24.8,0-26.17,14.93-26.17,373.2v373.2h309.94h309.94V465.2z M1858.46,478.77V119.15h-179.08
		h-179.08v359.63V838.4h179.08h179.08V478.77z M2133.97,465.2V92h-103.31h-103.31v373.2v373.2h103.31h103.31V465.2z M1266.13,119.15
		C1279.91,93.36,1277.15,92,1121.49,92s-158.41,1.36-144.64,27.14c13.78,24.43,28.93,27.14,144.64,27.14
		S1252.36,143.57,1266.13,119.15z"/>
	<path d="M177.9,702.69c0-63.78,2.76-67.85,34.44-67.85s34.44,4.07,34.44,67.85s-2.76,67.85-34.44,67.85S177.9,766.48,177.9,702.69z
		"/>
	<path d="M183.41,520.84c-4.13-10.86-5.51-42.07-2.76-70.57c2.76-43.43,9.64-54.28,35.82-57c28.93-4.07,30.31,0,30.31,70.57
		c0,67.85-2.76,76-27.55,76C204.07,539.84,187.54,531.7,183.41,520.84z"/>
	<path d="M177.9,227.71c0-63.78,2.76-67.85,34.44-67.85s34.44,4.07,34.44,67.85s-2.76,67.85-34.44,67.85S177.9,291.5,177.9,227.71z"
		/>
	<path d="M467.18,702.69c0-58.35,4.13-67.85,27.55-67.85s27.55,9.5,27.55,67.85c0,58.35-4.13,67.85-27.55,67.85
		S467.18,761.05,467.18,702.69z"/>
	<path d="M604.93,701.34c0-63.78,2.76-67.85,31.68-63.78c26.17,4.07,30.31,13.57,34.44,69.21c4.13,61.07,2.76,63.78-30.31,63.78
		S604.93,766.48,604.93,701.34z"/>
	<path d="M460.29,499.13c0-61.07,2.76-67.85,31.68-67.85c27.55,0,30.31,6.79,30.31,67.85s-2.76,67.85-30.31,67.85
		C463.04,566.99,460.29,560.2,460.29,499.13z"/>
	<path d="M604.93,499.13c0-63.78,2.76-67.85,34.44-67.85c37.19,0,41.33,16.29,26.17,93.64c-6.89,28.5-16.53,42.07-34.44,42.07
		C609.06,566.99,604.93,556.13,604.93,499.13z"/>
	<path d="M467.18,295.57c0-58.35,4.13-67.85,27.55-67.85s27.55,9.5,27.55,67.85s-4.13,67.85-27.55,67.85
		S467.18,353.92,467.18,295.57z"/>
	<path d="M604.93,296.92c0-65.14,2.76-69.21,35.82-69.21s34.44,2.71,30.31,65.14c-4.13,54.28-8.27,63.78-34.44,67.85
		C607.68,364.78,604.93,360.71,604.93,296.92z"/>
	<path d="M880.43,702.69c0-63.78,2.76-67.85,34.44-67.85s34.44,4.07,34.44,67.85s-2.76,67.85-34.44,67.85
		S880.43,766.48,880.43,702.69z"/>
	<path d="M1018.18,702.69c0-63.78,2.76-67.85,34.44-67.85c31.68,0,34.44,4.07,34.44,67.85s-2.76,67.85-34.44,67.85
		C1020.94,770.55,1018.18,766.48,1018.18,702.69z"/>
	<path d="M1155.93,702.69c0-63.78,2.76-67.85,34.44-67.85c31.68,0,34.44,4.07,34.44,67.85s-2.76,67.85-34.44,67.85
		C1158.69,770.55,1155.93,766.48,1155.93,702.69z"/>
	<path d="M1293.68,702.69c0-63.78,2.76-67.85,34.44-67.85s34.44,4.07,34.44,67.85s-2.76,67.85-34.44,67.85
		S1293.68,766.48,1293.68,702.69z"/>
	<path d="M880.43,463.85c0-70.57,1.38-74.64,31.68-70.57c26.17,4.07,30.31,13.57,34.44,76c4.13,67.85,2.76,70.57-30.31,70.57
		C881.81,539.84,880.43,535.77,880.43,463.85z"/>
	<path d="M1018.18,465.2c0-70.57,1.38-74.64,34.44-74.64s34.44,4.07,34.44,74.64s-1.38,74.64-34.44,74.64
		S1018.18,535.77,1018.18,465.2z"/>
	<path d="M1155.93,465.2c0-70.57,1.38-74.64,34.44-74.64s34.44,4.07,34.44,74.64s-1.38,74.64-34.44,74.64
		S1155.93,535.77,1155.93,465.2z"/>
	<path d="M1299.19,520.84c-4.13-10.86-5.51-42.07-2.76-70.57c2.76-43.43,9.64-54.28,35.82-57c28.93-4.07,30.31,0,30.31,70.57
		c0,67.85-2.76,76-27.55,76C1319.86,539.84,1303.33,531.7,1299.19,520.84z"/>
	<path d="M1582.96,702.69c0-58.35,4.13-67.85,27.55-67.85s27.55,9.5,27.55,67.85c0,58.35-4.13,67.85-27.55,67.85
		S1582.96,761.05,1582.96,702.69z"/>
	<path d="M1720.71,701.34c0-63.78,2.76-67.85,31.68-63.78c26.17,4.07,30.31,13.57,34.44,69.21c4.13,61.07,2.76,63.78-30.31,63.78
		S1720.71,766.48,1720.71,701.34z"/>
	<path d="M1582.96,499.13c0-58.35,4.13-67.85,27.55-67.85s27.55,9.5,27.55,67.85s-4.13,67.85-27.55,67.85
		S1582.96,557.49,1582.96,499.13z"/>
	<path d="M1720.71,499.13c0-63.78,2.76-67.85,34.44-67.85c31.68,0,34.44,4.07,34.44,67.85s-2.76,67.85-34.44,67.85
		C1723.47,566.99,1720.71,562.91,1720.71,499.13z"/>
	<path d="M1582.96,295.57c0-58.35,4.13-67.85,27.55-67.85s27.55,9.5,27.55,67.85s-4.13,67.85-27.55,67.85
		S1582.96,353.92,1582.96,295.57z"/>
	<path d="M1720.71,296.92c0-65.14,2.76-69.21,35.82-69.21s34.44,2.71,30.31,65.14c-4.13,54.28-8.27,63.78-34.44,67.85
		C1723.47,364.78,1720.71,360.71,1720.71,296.92z"/>
	<path d="M1996.22,702.69c0-63.78,2.76-67.85,34.44-67.85s34.44,4.07,34.44,67.85s-2.76,67.85-34.44,67.85
		S1996.22,766.48,1996.22,702.69z"/>
	<path d="M1996.22,465.2c0-70.57,1.38-74.64,34.44-74.64c33.06,0,34.44,4.07,34.44,74.64s-1.38,74.64-34.44,74.64
		C1997.59,539.84,1996.22,535.77,1996.22,465.2z"/>
	<path d="M1996.22,227.71c0-63.78,2.76-67.85,34.44-67.85s34.44,4.07,34.44,67.85s-2.76,67.85-34.44,67.85
		S1996.22,291.5,1996.22,227.71z"/>
</g>
</svg>
