<?xml version="1.0" standalone="no"?>
<!DOCTYPE svg PUBLIC "-//W3C//DTD SVG 20010904//EN"
 "http://www.w3.org/TR/2001/REC-SVG-20010904/DTD/svg10.dtd">
<svg version="1.0" xmlns="http://www.w3.org/2000/svg"
 width="512.000000pt" height="512.000000pt" viewBox="0 0 512.000000 512.000000"
 preserveAspectRatio="xMidYMid meet">

<g transform="translate(0.000000,512.000000) scale(0.100000,-0.100000)"
fill="#000000" stroke="none">
<path d="M2517 5106 c-31 -24 -37 -75 -37 -313 l0 -233 -65 0 c-57 0 -69 -3
-90 -25 l-25 -24 0 -636 0 -635 -90 0 c-83 0 -93 -2 -115 -25 -24 -23 -25 -29
-25 -158 l0 -134 -49 -7 c-86 -11 -86 -8 -89 -316 l-3 -268 25 -28 24 -29 141
-3 141 -4 -2 -205 -3 -206 -60 -13 c-130 -26 -242 -89 -341 -189 -82 -84 -144
-198 -172 -314 l-18 -73 -74 -19 c-119 -30 -195 -74 -286 -164 -92 -91 -144
-181 -172 -296 l-18 -72 -65 -13 c-35 -8 -102 -32 -149 -55 -67 -33 -102 -59
-165 -123 -120 -121 -182 -259 -187 -413 -5 -127 -207 -113 1637 -113 l1592 0
27 21 c36 28 36 80 0 108 -24 19 -40 21 -185 21 l-159 0 0 170 c0 102 -4 179
-11 193 -17 37 -50 47 -159 47 l-100 0 0 91 c0 87 -1 92 -29 120 l-29 29 -136
0 -136 0 0 144 0 143 39 7 c96 15 96 135 1 151 l-40 7 0 93 0 92 39 7 c96 15
96 137 0 152 l-39 7 0 50 0 50 33 -6 c208 -34 381 -227 406 -453 5 -39 14 -80
20 -92 12 -23 14 -24 131 -41 187 -28 343 -167 385 -341 8 -36 18 -86 21 -113
7 -66 29 -83 114 -91 126 -11 251 -73 330 -164 43 -49 105 -166 115 -219 l7
-33 -154 0 c-149 0 -155 -1 -176 -23 -31 -33 -29 -80 4 -106 25 -20 40 -21
225 -21 108 0 205 3 214 6 49 19 54 109 13 249 -31 109 -75 182 -163 271 -63
64 -98 90 -165 123 -47 23 -114 47 -149 54 l-64 13 -22 80 c-32 119 -77 197
-170 289 -90 90 -166 134 -285 164 l-74 19 -18 73 c-61 254 -263 452 -513 503
l-60 13 -3 206 -2 205 141 4 141 3 24 29 25 28 -3 268 c-3 308 -3 305 -89 316
l-49 7 0 134 c0 129 -1 135 -25 158 -22 23 -32 25 -115 25 l-90 0 0 635 0 636
-25 24 c-21 22 -33 25 -90 25 l-65 0 0 233 c0 127 -4 247 -10 266 -11 39 -35
60 -70 60 -14 0 -33 -6 -43 -13z m153 -791 l0 -95 -110 0 -110 0 0 95 0 95
110 0 110 0 0 -95z m0 -335 l0 -80 -110 0 -110 0 0 80 0 80 110 0 110 0 0 -80z
m0 -325 l0 -95 -110 0 -110 0 0 95 0 95 110 0 110 0 0 -95z m0 -330 l0 -85
-110 0 -110 0 0 85 0 85 110 0 110 0 0 -85z m230 -320 l0 -85 -139 0 c-153 0
-193 -9 -210 -46 -16 -36 -14 -49 12 -79 l22 -26 228 -6 227 -6 -2 -166 -3
-166 -475 0 -475 0 0 170 0 170 88 5 c73 4 91 9 103 24 28 39 12 100 -32 116
-23 9 -24 14 -24 95 l0 85 340 0 340 0 0 -85z m-190 -1070 l0 -335 -150 0
-150 0 0 335 0 335 150 0 150 0 0 -335z m-450 -284 l0 -49 -40 -7 c-45 -8 -70
-35 -70 -75 0 -40 25 -67 70 -75 l40 -7 0 -93 0 -93 -40 -7 c-95 -16 -95 -136
1 -151 l39 -7 0 -143 0 -144 -136 0 -136 0 -29 -29 c-28 -28 -29 -33 -29 -120
l0 -91 -101 0 c-167 0 -168 -2 -169 -232 l0 -178 -481 0 -481 0 7 33 c11 56
71 170 114 219 81 91 205 153 331 164 90 9 105 24 119 124 5 41 17 95 26 120
55 155 205 276 375 301 117 17 119 18 131 41 6 12 16 58 20 102 16 150 117
307 243 381 53 31 142 64 174 65 20 0 22 -5 22 -49z m450 -306 l0 -95 -150 0
-150 0 0 95 0 95 150 0 150 0 0 -95z m0 -400 l0 -145 -150 0 -150 0 0 145 0
145 150 0 150 0 0 -145z m328 -342 l3 -43 -480 0 -481 0 0 38 c0 21 3 42 7 45
3 4 218 6 477 5 l471 -3 3 -42z m270 -325 l3 -128 -751 0 -750 0 0 123 c0 68
3 127 7 130 3 4 340 6 747 5 l741 -3 3 -127z"/>
</g>
</svg>
