<?xml version="1.0" encoding="utf-8"?>
<!-- Generator: Adobe Illustrator 28.3.0, SVG Export Plug-In . SVG Version: 6.00 Build 0)  -->
<svg version="1.1" id="Layer_1" xmlns="http://www.w3.org/2000/svg" xmlns:xlink="http://www.w3.org/1999/xlink" x="0px" y="0px"
	 viewBox="0 0 595.28 841.89" style="enable-background:new 0 0 595.28 841.89;" xml:space="preserve">
<style type="text/css">
	.st0{stroke:#000000;stroke-miterlimit:10;}
	.st1{fill:#2D2D2D;stroke:#231F20;stroke-width:0.25;stroke-miterlimit:10;}
	.st2{fill:#24363C;stroke:#231F20;stroke-width:0.25;stroke-miterlimit:10;}
	.st3{fill:#633B36;stroke:#000000;stroke-width:0.25;stroke-miterlimit:10;}
	.st4{fill:none;stroke:#000000;stroke-width:4;stroke-miterlimit:10;}
	.st5{fill:#EAEAEA;}
</style>
<rect x="265.57" y="393.38" class="st0" width="62.86" height="20.15"/>
<rect x="265.57" y="389.43" class="st0" width="4.89" height="3.14"/>
<rect x="323.55" y="389.4" class="st0" width="4.88" height="3.04"/>
<path class="st0" d="M265.57,398.38c-2.2,2.08-1.19,3.56-4.67,7.38c-4.61,5.07-10.55,7.05-12.6,7.71c-3.69,1.18-7.47,1.28-7.44,1.63
	c0.02,0.21,1.37,0.27,1.76,0.28c25.26,0.9,53.64,0.52,53.64,0.52c4.39-0.06,11.8-0.15,21.49,0.26c10.59,0.45,21.2,0,31.8,0.2
	c0.59,0.01,2.53,0.05,2.56-0.21c0.04-0.37-3.88-0.5-7.44-1.86c-9.73-3.72-9.98-11.85-16.75-16.07c-8.28-5.16-13.23,3.68-31.48,2.78
	C280.74,400.21,271.25,393.02,265.57,398.38z"/>
<path class="st0" d="M241.12,415.95"/>
<polygon class="st1" points="351.3,416.68 333.25,428.85 258.95,428.85 241.12,415.95 "/>
<path class="st0" d="M240.86,441.02l18.09-12.17h74.48c5.28,3.94,10.56,7.88,15.84,11.82C313.13,440.79,276.99,440.9,240.86,441.02z
	"/>
<path class="st1" d="M240.53,441.32l-14.01,5.19c18.75-0.02,37.51-0.04,56.26-0.07c9.42-1.8,18.83-3.6,28.25-5.4
	C287.53,441.13,264.03,441.22,240.53,441.32z"/>
<path class="st1" d="M349.07,440.83l14.01,5.19c-28.66-0.01-57.32-0.02-85.98-0.03c0.09-1.65,0.17-3.31,0.26-4.96
	C301.26,440.96,325.17,440.89,349.07,440.83z"/>
<path class="st2" d="M276.97,445.14"/>
<path class="st0" d="M276.73,444.5v-3.48h2.89v1.18c9.79,0.08,19.58,0.16,29.36,0.24c-0.01-0.46-0.02-0.91-0.02-1.37
	c1.01-0.02,2.02-0.03,3.04-0.05v1.96c0,0.51,0,1.01,0,1.52c2.42,2.57,4.84,5.14,7.27,7.71c-16.56-0.06-33.12-0.11-49.68-0.17
	C271.96,449.53,274.34,447.01,276.73,444.5z"/>
<path class="st2" d="M277.66,444.7"/>
<polygon class="st1" points="244.57,454.49 244.57,460.27 249.51,460.27 249.51,454.59 "/>
<path class="st1" d="M319.55,454.81c0,1.84,0,3.69,0,5.53c1.65,0.01,3.3,0.02,4.95,0.02c0-1.82,0-3.64,0-5.46L319.55,454.81z"/>
<path class="st1" d="M264.37,454.81c0,1.84,0,3.69,0,5.53c1.65,0.01,3.3,0.02,4.95,0.02c0-1.82,0-3.64,0-5.46L264.37,454.81z"/>
<polygon class="st1" points="315.86,460.37 315.86,468.55 357.88,468.16 357.88,460.37 "/>
<polygon class="st1" points="229.85,460.37 229.85,468.55 271.88,468.16 271.88,460.37 "/>
<path class="st0" d="M265.66,454.64c0.64,0,58.14,0,58.14,0l-4.95-2.64l-49.27,0.05L265.66,454.64z"/>
<path class="st2" d="M323.5,458.46"/>
<path class="st2" d="M226.23,447.1"/>
<path class="st0" d="M225.51,446.77c5.73,2.59,11.45,5.18,17.18,7.77c7.66,0.03,15.31,0.07,22.97,0.1c1.27-0.72,2.72-1.67,4.21-2.9
	c2.12-1.75,3.68-3.56,4.8-5.06C258.28,446.71,241.89,446.74,225.51,446.77z"/>
<path class="st0" d="M363.08,446.11c-5.05,2.79-10.09,5.59-15.14,8.38c-8.05,0.05-16.1,0.1-24.15,0.15
	c-1.26-0.46-2.88-1.2-4.54-2.43c-2.89-2.12-4.5-4.64-5.33-6.19C330.31,446.05,346.7,446.08,363.08,446.11z"/>
<path class="st1" d="M254.46,454.81c0,1.84,0,3.67,0,5.51c1.65,0,3.31,0.01,4.96,0.01c0-1.81-0.01-3.62-0.01-5.42L254.46,454.81z"/>
<path class="st1" d="M259.42,454.81c0,1.84,0.01,3.68,0.01,5.52c1.64,0,3.29-0.01,4.93-0.01c0-1.8,0-3.61,0-5.41L259.42,454.81z"/>
<path class="st1" d="M249.51,454.59c0.01,1.89,0.02,3.79,0.02,5.68c1.64,0,3.28,0,4.92,0c0-1.86,0-3.72,0-5.58L249.51,454.59z"/>
<path class="st1" d="M324.5,454.81c0,1.84,0,3.69,0,5.53c1.65,0.01,3.3,0.02,4.95,0.02c0-1.82,0-3.64,0-5.46L324.5,454.81z"/>
<path class="st1" d="M264.37,454.63c2.5,2.47,5.01,4.95,7.51,7.42h45.39c2.39-2.47,4.79-4.94,7.18-7.42
	C304.42,454.63,284.39,454.63,264.37,454.63z"/>
<path class="st1" d="M329.45,454.81c0,1.84,0,3.69,0,5.53c1.65,0.01,3.3,0.02,4.95,0.02c0-1.82,0-3.64,0-5.46L329.45,454.81z"/>
<path class="st1" d="M334.39,454.81c0,1.84,0,3.69,0,5.53c1.65,0.01,3.3,0.02,4.95,0.02c0-1.82,0-3.64,0-5.46L334.39,454.81z"/>
<path class="st1" d="M339.34,454.81c0,1.84,0,3.69,0,5.53c1.65,0.01,3.3,0.02,4.95,0.02c0-1.82,0-3.64,0-5.46L339.34,454.81z"/>
<polygon class="st0" points="242.68,454.56 242.68,462.05 244.57,461.93 244.57,454.49 "/>
<polygon class="st0" points="344.6,454.72 344.6,462.43 346.48,462.3 346.48,454.65 "/>
<rect x="271.88" y="462.05" class="st0" width="44.87" height="6.11"/>
<path class="st3" d="M322.62,468.55"/>
<path class="st0" d="M214.93,460.42c4.97-0.02,9.95-0.03,14.92-0.05v8.18l128.03-0.39v-7.79c4.9,0.02,9.8,0.03,14.7,0.05
	c0.07,20.64,0.13,41.27,0.2,61.91c-19-0.1-38.01-0.2-57.01-0.29c0.02-0.92,0.03-2.19,0.02-3.72c-0.01-1.44-0.04-2.97-0.07-3.9
	c-0.04-1.05-0.17-4.71-0.81-7.49c-1.1-4.8-3.97-8.1-4.75-8.95c-5.56-6.07-13.53-6.48-15.85-6.5c-9.14-0.06-15.14,5.41-16.46,6.66
	c-3.38,4.03-4.36,7.5-4.7,9.5c-0.25,1.48-0.51,4.22-0.49,7.05c0.01,1.04,0.06,2.31,0,4.31c-0.04,1.52-0.13,2.78-0.2,3.62
	c-19.1-0.03-38.2-0.07-57.31-0.1C215.08,501.82,215.01,481.12,214.93,460.42z"/>
<path class="st4" d="M277.85,530.17"/>
<path class="st0" d="M277.17,531.54c0-7.61,0-15.22,0-22.82c0.32-1.43,1.73-6.95,6.96-10.38c4.21-2.77,8.51-2.62,10.68-2.55
	c2.31,0.08,6.51,0.22,10.38,3.23c4.73,3.67,5.67,9.06,5.88,10.48c0.14,2.94,0.23,5.94,0.29,9.01c0.09,4.47,0.08,8.82,0,13.03
	C299.96,531.54,288.56,531.54,277.17,531.54z"/>
<path class="st1" d="M215.62,522.94c0.03,3.11,0.07,6.23,0.1,9.34c18.86-0.03,37.71-0.07,56.57-0.1c-0.02-3.25-0.03-6.49-0.05-9.74
	C253.37,522.6,234.5,522.77,215.62,522.94z"/>
<path class="st1" d="M316.19,522.49c0.04,3.13,0.09,6.27,0.13,9.4c18.82-0.12,37.64-0.24,56.46-0.36l-0.2-8.91
	C353.78,522.58,334.98,522.54,316.19,522.49z"/>
<path class="st5" d="M272.72,531.54c0,0.38,0.01,0.76,0.01,1.13c14.36-0.09,28.72-0.19,43.09-0.28c-0.01-0.36-0.01-0.72-0.02-1.08
	C301.44,531.39,287.08,531.47,272.72,531.54z"/>
<path class="st0" d="M263.12,545.06"/>
<path class="st0" d="M183.71,490.69v24.88h31.43c-0.03-8.28-0.06-16.56-0.09-24.83C204.6,490.72,194.15,490.7,183.71,490.69z"/>
<path class="st1" d="M183.71,479.47v11.22l31.33,0.05l-0.11-11.27c-1.74-0.01-3.47-0.02-5.21-0.03c0,1,0.01,2,0.01,3
	c-0.68,0-1.36,0.01-2.05,0.01c0.01-0.99,0.01-1.98,0.02-2.98c-3.66,0-7.32,0-10.98,0c0,0.99,0,1.98,0,2.97
	c-0.68,0.01-1.35,0.02-2.03,0.03c0-1,0.01-2,0.01-3.01C191.03,479.47,187.37,479.47,183.71,479.47z"/>
<path class="st1" d="M408.71,479.58c0,3.93,0,7.86,0,11.8c-12.02,0.04-24.04,0.09-36.06,0.13c0-3.94,0-7.88,0-11.82
	c3.35-0.04,6.7-0.09,10.06-0.13c0,1-0.01,2-0.01,3c0.68,0,1.36,0.01,2.05,0.01c-0.01-0.99-0.01-1.98-0.02-2.98
	c3.66,0,7.32,0,10.98,0c0,0.99,0,1.98,0,2.97c0.68,0.01,1.35,0.02,2.03,0.03c0-1-0.01-2-0.01-3.01
	C401.38,479.57,405.04,479.57,408.71,479.58z"/>
<path class="st0" d="M372.64,491.5v24.88h35.01c-0.03-8.28-0.07-16.56-0.1-24.83C395.91,491.53,384.27,491.51,372.64,491.5z"/>
</svg>
