<?xml version="1.0" encoding="utf-8"?>
<!-- Generator: Adobe Illustrator 28.3.0, SVG Export Plug-In . SVG Version: 6.00 Build 0)  -->
<svg version="1.1" id="Layer_1" xmlns="http://www.w3.org/2000/svg" xmlns:xlink="http://www.w3.org/1999/xlink" x="0px" y="0px"
	 viewBox="0 0 156 193" style="enable-background:new 0 0 156 193;" xml:space="preserve">
<style type="text/css">
	.st0{stroke:#000000;stroke-miterlimit:10;}
</style>
<g transform="translate(0.000000,193.000000) scale(0.100000,-0.100000)">
	<path class="st0" d="M631,1904c-65.09-14.38-104.16-32.95-125.76-44.52C465.66,1838.27,429.8,1810.8,395,1776
		c-67-68-108-137-128-217c-14-53-15-55-83-88c-163-82-213-200-133-311c21-29,88-84,115-95c1,0,4-12,8-26c5-22,2-28-17-33
		C77,986-18,827,18,774c4-6,17-16,30-23c25-13,62-8,211,30c41,11,78,19,82,19c4,0,15-26,24-57c41-141,159-299,263-352l43-22l-24-28
		c-38-45-108-261-99-303c6-28,49-33,124-14c101,24,176,63,233,120l50,51l50-18c71-25,245-18,332,13c95,33,127,59,131,102
		c3,31-2,40-40,72c-152.27,128.22-275,136-275,136c-24.51,7.97-53.15,16.64-62.61,40.75c-10.49,26.75,5.4,65.47,24.82,69.22
		c16.2,3.13,24.42-20.09,52.24-41.8c42.96-33.51,115.02-49.66,171.1-20.9c45.11,23.13,61.86,66.09,64,71.84
		c21.52,57.78-6.16,108.67-10.45,116.24c-6.53,12.19-13.06,24.38-19.59,36.57c10.45,7.84,20.9,15.67,31.35,23.51
		c30,28.85,29.3,52.32,28.73,58.78c-3.73,42.75-65.11,69.24-95.35,82.29c-15.25,6.58-28.52,10.6-37.88,13.06
		c4.88,10.66,12.24,26.98,20.9,47.02c21.84,50.58,28.41,70.58,37.88,91.43c19.24,42.35,38.18,61.18,66.61,99.27
		c63.9,85.57,122.01,163.4,117.55,256c-0.82,17.01-4.84,57.12-28.73,97.96c-35.23,60.21-81.62,67.23-168.49,128
		c-77.06,53.9-65.89,66.09-138.45,118.86c-29.53,21.47-99.74,71.7-201.14,104.49C832.55,1948.52,685.48,1916.03,631,1904z
		 M920.6,1853.4c49.12-12.81,245.26-63.95,363.1-244.24c175.55-268.58,21.93-586.01,14.3-601.16l-31-69l-39,6c-22,4-38,3-38-3
		c0-5,26-12,57-16c98-11,170-55,156-94c-6-14-75-52-97-52c-8,0-18-5-21-10c-4-6,6-9,27-8c30,3,35-1,57-45c28-56,23-88-19-127
		c-58-55-128-44-200,30c-41,42-103,147-126,215c-6,16-8,17-11,4c-5-19,37-116,66-158l21-28l-27-62c-16-37-32-61-42-61
		c-5.74,0-10.98-0.5-11.54-2.45c-1.9-6.56,54.97-28.18,82.69-39.05c0,0,106.43-41.71,228.57-107.1
		c110.16-58.98,113.07-76.73,112.33-84.9c-1.87-20.54-44.78-41.12-130.61-82.29c-23.11-11.08-34.94-16.71-48.33-20.9
		c-15.76-4.93-34.86-9.18-122.78-9.14c-73.73,0.03-92.66,3.03-112.33,10.45c-8.82,3.32-23.88,9.84-36.57,15.67
		C969.3,220.94,950.72,230.87,938,238c1,8-2,11-7,8c-5-4-11,0-14,6c-2,7-8,10-12,6c-3.09-3.09,6.48-19.4,9-27
		c20.9-62.97-242.7-177.47-289.89-191.8c-21.6-6.56-32.9-2.78-39.18,1.31c-6.55,4.26-9.62,10.13-10.45,11.76
		c-9.74,19.17,3.89,44.59,7.84,52.24c44.4,86.09,52.16,225.28,117.55,237.71c12.51,2.38,38.57,1.73,58.14-0.22
		c25.57-2.54,40.61-7.35,41.81-4.38c2.16,5.34-43.5,28.36-58.15,35.94c0,0-90.13,46.68-176.33,124.08
		c-73.32,65.84-107.04,136.11-148.9,223.35c-45.2,94.19-79.85,203.29-58.78,215.51c5.34,3.1,9.83-2.6,31.35-5.22
		c33.75-4.12,66.54,4.54,66.61,10.45c0.04,3.16-9.28,5.06-39.18,11.76c-44.71,10-100.64,22.93-124.43,48.52
		c-2.2,2.36-7.38,7.99-5.74,10.82c1.47,2.54,10.36,0.97,30.74-3.82c74-17,216-22,277-9c48,10,60,10,68-2c6-9,8-4,6,16
		c-2,16-9,31-16,34c-7,2-11-2-10-9c-76.97-14.48-142.03-15.73-188.99-13.68c-33.34,1.46-78.37,3.67-135.84,18.29
		c-72.91,18.54-122.07,45.91-133.22,52.24c-46.4,26.37-82.92,47.13-109.71,91.43c-10.41,17.21-30.79,50.9-28.73,94.04
		c4.56,95.89,115.82,152.88,173.06,182.2c16.88,8.65,32.81,14.25,50.29,16.98c15.64,2.44,33.51,2.74,65.31-3.27
		c23.45-4.43,56.56-10.93,98.61-30.69c68.81-32.34,116-78.78,150.86-113.63c36.01-36.01,55.36-62.56,61.39-58.78
		c6.13,3.85-3.51,37.83-21.71,67.1c-42.64,68.56-137.18,119.2-182.69,132.08c-5.62,1.59-21.56,5.74-31.35,19.59
		c-9.91,14.03-8.16,30.44-7.84,39.18c0.78,20.78-4.49,51.22-32.33,92.24c-10.29,9.47-20.57,18.94-30.86,28.41
		c7.78,10.29,15.56,20.57,23.35,30.86c32.4,39.4,119.66,134.58,266.45,175.02C757.89,1894.41,864.36,1868.07,920.6,1853.4z
		 M1385,1618c83-42,121-94,130-179c5-46,1-62-25-114c-16-33-50-82-75-110l-45-50l6,35c3,19,8,42,11,50c10,29,2,181-13,238
		c-8,31-28,80-44,110c-28,51-28,53-7,46C1335,1640,1363,1629,1385,1618z M350,1583c0-12-7-13-27-8c-36,9-36,8-21,40l12,27l18-22
		C342,1608,350,1591,350,1583z M323,1532l19-32h-36c-37,0-41,6-30,48C284,1577,300,1572,323,1532z M228,1036c69-36,111-108,112-191
		v-30l-118-28C51,747,30,751,30,821c0,50,52,127,107,157l42,23l16-28l16-28l-6,29c-3,16-8,39-11,52C187,1054,191,1055,228,1036z"/>
	<path class="st0" d="M894,1421c-37-16-74-70-74-108c0-40,31-89,63-99c19-6,16-8-21-19c-49-15-92-41-92-56c0-6,13-1,29,10
		c62,44,169,47,265,7c20-8,36-11,36-7c0,10-65,38-109,47l-35,6l27,14c34,18,57,62,57,108C1040,1393,957,1448,894,1421z M959,1399
		c37-13,40-26,8-40c-25-11-77,3-77,20c0,8,23,27,36,31C927,1410,941,1405,959,1399z M980,1270c0-16-27-23-58-15l-27,8l25,7
		C957,1282,980,1281,980,1270z"/>
	<path class="st0" d="M1048,223c12-2,32-2,45,0c12,2,2,4-23,4S1035,225,1048,223z"/>
</g>
</svg>
